<?xml version="1.0" encoding="UTF-8" standalone="no"?>
<!-- Created with Inkscape (http://www.inkscape.org/) -->

<svg
   xmlns:ns0="http://www.iki.fi/pav/software/textext/"
   xmlns:dc="http://purl.org/dc/elements/1.1/"
   xmlns:cc="http://creativecommons.org/ns#"
   xmlns:rdf="http://www.w3.org/1999/02/22-rdf-syntax-ns#"
   xmlns:svg="http://www.w3.org/2000/svg"
   xmlns="http://www.w3.org/2000/svg"
   xmlns:sodipodi="http://sodipodi.sourceforge.net/DTD/sodipodi-0.dtd"
   xmlns:inkscape="http://www.inkscape.org/namespaces/inkscape"
   width="320mm"
   height="240mm"
   viewBox="0 0 1133.8582 850.39368"
   id="svg13919"
   version="1.1"
   inkscape:version="0.91 r13725"
   sodipodi:docname="ripscomplex.svg"
   inkscape:export-filename="/home/robin/repositories/rpackage_tutorials/ripscomplex.svg.png"
   inkscape:export-xdpi="90"
   inkscape:export-ydpi="90">
  <sodipodi:namedview
     id="base"
     pagecolor="#ffffff"
     bordercolor="#666666"
     borderopacity="1.0"
     inkscape:pageopacity="0.0"
     inkscape:pageshadow="2"
     inkscape:zoom="1.0586724"
     inkscape:cx="376.06558"
     inkscape:cy="342.70816"
     inkscape:document-units="px"
     inkscape:current-layer="layer1"
     showgrid="false"
     inkscape:window-width="2560"
     inkscape:window-height="1311"
     inkscape:window-x="0"
     inkscape:window-y="55"
     inkscape:window-maximized="1" />
  <defs
     id="defs13921" />
  <metadata
     id="metadata13924">
    <rdf:RDF>
      <cc:Work
         rdf:about="">
        <dc:format>image/svg+xml</dc:format>
        <dc:type
           rdf:resource="http://purl.org/dc/dcmitype/StillImage" />
        <dc:title />
      </cc:Work>
    </rdf:RDF>
  </metadata>
  <g
     inkscape:label="Layer 1"
     inkscape:groupmode="layer"
     id="layer1"
     transform="translate(0,-201.96851)">
    <circle
       inkscape:export-ydpi="90"
       inkscape:export-xdpi="90"
       style="opacity:1;fill:#159515;fill-opacity:0.04705882;stroke:#000000;stroke-width:1;stroke-miterlimit:4;stroke-dasharray:none;stroke-dashoffset:0;stroke-opacity:1"
       id="path18399"
       cx="158.77682"
       cy="368.60156"
       r="100" />
    <circle
       inkscape:export-ydpi="90"
       inkscape:export-xdpi="90"
       style="opacity:1;fill:#159515;fill-opacity:0.04705882;stroke:#000000;stroke-width:1;stroke-miterlimit:4;stroke-dasharray:none;stroke-dashoffset:0;stroke-opacity:1"
       id="path18399-5"
       cx="268.5032"
       cy="398.47009"
       r="100" />
    <circle
       inkscape:export-ydpi="90"
       inkscape:export-xdpi="90"
       style="opacity:1;fill:#159515;fill-opacity:0.04705882;stroke:#000000;stroke-width:1;stroke-miterlimit:4;stroke-dasharray:none;stroke-dashoffset:0;stroke-opacity:1"
       id="path18399-1"
       cx="745.89453"
       cy="306.32074"
       r="81" />
    <circle
       inkscape:export-ydpi="90"
       inkscape:export-xdpi="90"
       style="opacity:1;fill:#159515;fill-opacity:0.04705882;stroke:#000000;stroke-width:1;stroke-miterlimit:4;stroke-dasharray:none;stroke-dashoffset:0;stroke-opacity:1"
       id="path18399-10"
       cx="892.50934"
       cy="314.97696"
       r="81" />
    <circle
       inkscape:export-ydpi="90"
       inkscape:export-xdpi="90"
       style="opacity:1;fill:#159515;fill-opacity:0.04705882;stroke:#000000;stroke-width:1;stroke-miterlimit:4;stroke-dasharray:none;stroke-dashoffset:0;stroke-opacity:1"
       id="path18399-3"
       cx="813.52124"
       cy="443.19736"
       r="81" />
    <path
       inkscape:export-ydpi="90"
       inkscape:export-xdpi="90"
       style="fill:#ffadb9;fill-opacity:1;fill-rule:evenodd;stroke:#000000;stroke-width:1.62;stroke-linecap:butt;stroke-linejoin:miter;stroke-miterlimit:4;stroke-dasharray:none;stroke-opacity:1"
       d="m 745.35346,307.9438 66.00371,138.49956 76.82397,-128.76132 z"
       id="path18692"
       inkscape:connector-curvature="0" />
    <circle
       inkscape:export-ydpi="90"
       inkscape:export-xdpi="90"
       style="opacity:1;fill:#159515;fill-opacity:0.04705882;stroke:#000000;stroke-width:1;stroke-miterlimit:4;stroke-dasharray:none;stroke-dashoffset:0;stroke-opacity:1"
       id="path18399-0"
       cx="126.50374"
       cy="770.43384"
       r="90" />
    <circle
       inkscape:export-ydpi="90"
       inkscape:export-xdpi="90"
       style="opacity:1;fill:#159515;fill-opacity:0.04705882;stroke:#000000;stroke-width:1;stroke-miterlimit:4;stroke-dasharray:none;stroke-dashoffset:0;stroke-opacity:1"
       id="path18399-04"
       cx="227.49301"
       cy="766.82709"
       r="90" />
    <circle
       inkscape:export-ydpi="90"
       inkscape:export-xdpi="90"
       style="opacity:1;fill:#159515;fill-opacity:0.04705882;stroke:#000000;stroke-width:1;stroke-miterlimit:4;stroke-dasharray:none;stroke-dashoffset:0;stroke-opacity:1"
       id="path18399-54"
       cx="125.90261"
       cy="869.01855"
       r="90" />
    <circle
       inkscape:export-ydpi="90"
       inkscape:export-xdpi="90"
       style="opacity:1;fill:#159515;fill-opacity:0.04705882;stroke:#000000;stroke-width:1;stroke-miterlimit:4;stroke-dasharray:none;stroke-dashoffset:0;stroke-opacity:1"
       id="path18399-2"
       cx="228.09412"
       cy="869.01862"
       r="90" />
    <path
       inkscape:export-ydpi="90"
       inkscape:export-xdpi="90"
       style="fill:#ffadb9;fill-opacity:1;fill-rule:evenodd;stroke:#000000;stroke-width:1.79999995;stroke-linecap:butt;stroke-linejoin:miter;stroke-miterlimit:4;stroke-dasharray:none;stroke-opacity:1"
       d="m 127.10482,770.43386 -1.20226,97.3825 102.19152,4.80901 -2.40451,-104.59602 z"
       id="path18709"
       inkscape:connector-curvature="0" />
    <circle
       inkscape:export-ydpi="90"
       inkscape:export-xdpi="90"
       style="opacity:1;fill:#009500;fill-opacity:0.04705882;stroke:#000000;stroke-width:1;stroke-miterlimit:4;stroke-dasharray:none;stroke-dashoffset:0;stroke-opacity:1"
       id="path18399-04-4"
       cx="537.00641"
       cy="741.1123"
       r="59.049" />
    <circle
       inkscape:export-ydpi="90"
       inkscape:export-xdpi="90"
       style="opacity:1;fill:#009500;fill-opacity:0.04705882;stroke:#000000;stroke-width:1;stroke-miterlimit:4;stroke-dasharray:none;stroke-dashoffset:0;stroke-opacity:1"
       id="path18399-04-4-9"
       cx="599.79071"
       cy="805.23242"
       r="59.049" />
    <circle
       inkscape:export-ydpi="90"
       inkscape:export-xdpi="90"
       style="opacity:1;fill:#009500;fill-opacity:0.04705882;stroke:#000000;stroke-width:1;stroke-miterlimit:4;stroke-dasharray:none;stroke-dashoffset:0;stroke-opacity:1"
       id="path18399-04-4-99"
       cx="619.82825"
       cy="896.06934"
       r="59.049" />
    <circle
       inkscape:export-ydpi="90"
       inkscape:export-xdpi="90"
       style="opacity:1;fill:#009500;fill-opacity:0.04705882;stroke:#000000;stroke-width:1;stroke-miterlimit:4;stroke-dasharray:none;stroke-dashoffset:0;stroke-opacity:1"
       id="path18399-04-4-4"
       cx="682.61261"
       cy="839.96423"
       r="59.049" />
    <circle
       inkscape:export-ydpi="90"
       inkscape:export-xdpi="90"
       style="opacity:1;fill:#009500;fill-opacity:0.04705882;stroke:#000000;stroke-width:1;stroke-miterlimit:4;stroke-dasharray:none;stroke-dashoffset:0;stroke-opacity:1"
       id="path18399-04-4-98"
       cx="772.11371"
       cy="843.97168"
       r="59.049" />
    <circle
       inkscape:export-ydpi="90"
       inkscape:export-xdpi="90"
       style="opacity:1;fill:#009500;fill-opacity:0.04705882;stroke:#000000;stroke-width:1;stroke-miterlimit:4;stroke-dasharray:none;stroke-dashoffset:0;stroke-opacity:1"
       id="path18399-04-4-1"
       cx="849.59222"
       cy="807.90411"
       r="59.049" />
    <circle
       inkscape:export-ydpi="90"
       inkscape:export-xdpi="90"
       style="opacity:1;fill:#009500;fill-opacity:0.04705882;stroke:#000000;stroke-width:1;stroke-miterlimit:4;stroke-dasharray:none;stroke-dashoffset:0;stroke-opacity:1"
       id="path18399-04-4-6"
       cx="933.74994"
       cy="814.58325"
       r="59.049" />
    <circle
       inkscape:export-ydpi="90"
       inkscape:export-xdpi="90"
       style="opacity:1;fill:#009500;fill-opacity:0.04705882;stroke:#000000;stroke-width:1;stroke-miterlimit:4;stroke-dasharray:none;stroke-dashoffset:0;stroke-opacity:1"
       id="path18399-04-4-3"
       cx="988.51923"
       cy="890.72601"
       r="59.049" />
    <circle
       inkscape:export-ydpi="90"
       inkscape:export-xdpi="90"
       style="opacity:1;fill:#009500;fill-opacity:0.04705882;stroke:#000000;stroke-width:1;stroke-miterlimit:4;stroke-dasharray:none;stroke-dashoffset:0;stroke-opacity:1"
       id="path18399-04-4-93"
       cx="1009.8926"
       cy="791.87402"
       r="59.049" />
    <circle
       inkscape:export-ydpi="90"
       inkscape:export-xdpi="90"
       style="opacity:1;fill:#009500;fill-opacity:0.04705882;stroke:#000000;stroke-width:1;stroke-miterlimit:4;stroke-dasharray:none;stroke-dashoffset:0;stroke-opacity:1"
       id="path18399-04-4-34"
       cx="1019.2435"
       cy="847.97919"
       r="59.049" />
    <circle
       inkscape:export-ydpi="90"
       inkscape:export-xdpi="90"
       style="opacity:1;fill:#009500;fill-opacity:0.04705882;stroke:#000000;stroke-width:1;stroke-miterlimit:4;stroke-dasharray:none;stroke-dashoffset:0;stroke-opacity:1"
       id="path18399-04-4-61"
       cx="1067.3336"
       cy="717.06726"
       r="59.049" />
    <circle
       style="opacity:1;fill:#2b0000;fill-opacity:1;stroke:none;stroke-width:1;stroke-miterlimit:4;stroke-dasharray:3, 3;stroke-dashoffset:0;stroke-opacity:0.5372549"
       id="path8070"
       cx="157.38556"
       cy="369.50653"
       r="6.4359469"
       inkscape:export-xdpi="90"
       inkscape:export-ydpi="90" />
    <circle
       style="opacity:1;fill:#2b0000;fill-opacity:1;stroke:none;stroke-width:1;stroke-miterlimit:4;stroke-dasharray:3, 3;stroke-dashoffset:0;stroke-opacity:0.5372549"
       id="path8070-5"
       cx="267.98956"
       cy="401.56342"
       r="6.4359469"
       inkscape:export-xdpi="90"
       inkscape:export-ydpi="90" />
    <circle
       style="opacity:1;fill:#2b0000;fill-opacity:1;stroke:none;stroke-width:1;stroke-miterlimit:4;stroke-dasharray:3, 3;stroke-dashoffset:0;stroke-opacity:0.5372549"
       id="path8070-6"
       cx="745.6842"
       cy="308.32184"
       r="5.2131171"
       inkscape:export-xdpi="90"
       inkscape:export-ydpi="90" />
    <circle
       style="opacity:1;fill:#2b0000;fill-opacity:1;stroke:none;stroke-width:1;stroke-miterlimit:4;stroke-dasharray:3, 3;stroke-dashoffset:0;stroke-opacity:0.5372549"
       id="path8070-1"
       cx="811.48364"
       cy="447.18912"
       r="5.2131171"
       inkscape:export-xdpi="90"
       inkscape:export-ydpi="90" />
    <circle
       style="opacity:1;fill:#2b0000;fill-opacity:1;stroke:none;stroke-width:1;stroke-miterlimit:4;stroke-dasharray:3, 3;stroke-dashoffset:0;stroke-opacity:0.5372549"
       id="path8070-7"
       cx="888.75964"
       cy="318.26828"
       r="5.2131171"
       inkscape:export-xdpi="90"
       inkscape:export-ydpi="90" />
    <circle
       style="opacity:1;fill:#2b0000;fill-opacity:1;stroke:none;stroke-width:1;stroke-miterlimit:4;stroke-dasharray:3, 3;stroke-dashoffset:0;stroke-opacity:0.5372549"
       id="path8070-2"
       cx="127.36543"
       cy="771.63568"
       r="5.7923522"
       inkscape:export-xdpi="90"
       inkscape:export-ydpi="90" />
    <circle
       style="opacity:1;fill:#2b0000;fill-opacity:1;stroke:none;stroke-width:1;stroke-miterlimit:4;stroke-dasharray:3, 3;stroke-dashoffset:0;stroke-opacity:0.5372549"
       id="path8070-29"
       cx="225.97949"
       cy="769.08533"
       r="5.7923522"
       inkscape:export-xdpi="90"
       inkscape:export-ydpi="90" />
    <circle
       style="opacity:1;fill:#2b0000;fill-opacity:1;stroke:none;stroke-width:1;stroke-miterlimit:4;stroke-dasharray:3, 3;stroke-dashoffset:0;stroke-opacity:0.5372549"
       id="path8070-28"
       cx="228.10481"
       cy="872.37512"
       r="5.7923522"
       inkscape:export-xdpi="90"
       inkscape:export-ydpi="90" />
    <circle
       style="opacity:1;fill:#2b0000;fill-opacity:1;stroke:none;stroke-width:1;stroke-miterlimit:4;stroke-dasharray:3, 3;stroke-dashoffset:0;stroke-opacity:0.5372549"
       id="path8070-12"
       cx="126.09025"
       cy="869.39966"
       r="5.7923522"
       inkscape:export-xdpi="90"
       inkscape:export-ydpi="90" />
    <circle
       style="opacity:1;fill:#2b0000;fill-opacity:1;stroke:none;stroke-width:1;stroke-miterlimit:4;stroke-dasharray:3, 3;stroke-dashoffset:0;stroke-opacity:0.5372549"
       id="path8070-4"
       cx="535.80554"
       cy="742.01709"
       r="6.4359469"
       inkscape:export-xdpi="90"
       inkscape:export-ydpi="90" />
    <path
       inkscape:export-ydpi="90"
       inkscape:export-xdpi="90"
       style="fill:#ffadb9;fill-opacity:1;fill-rule:evenodd;stroke:#000000;stroke-width:2;stroke-linecap:butt;stroke-linejoin:miter;stroke-miterlimit:4;stroke-dasharray:none;stroke-opacity:1"
       d="m 535.67049,741.78015 64.12017,67.45976 18.0338,90.16898 64.12016,-58.1089 -84.82564,-34.73175"
       id="path18715"
       inkscape:connector-curvature="0" />
    <circle
       style="opacity:1;fill:#2b0000;fill-opacity:1;stroke:none;stroke-width:1;stroke-miterlimit:4;stroke-dasharray:3, 3;stroke-dashoffset:0;stroke-opacity:0.5372549"
       id="path8070-78"
       cx="598.62012"
       cy="807.19305"
       r="6.4359469"
       inkscape:export-xdpi="90"
       inkscape:export-ydpi="90" />
    <circle
       style="opacity:1;fill:#2b0000;fill-opacity:1;stroke:none;stroke-width:1;stroke-miterlimit:4;stroke-dasharray:3, 3;stroke-dashoffset:0;stroke-opacity:0.5372549"
       id="path8070-63"
       cx="617.98395"
       cy="897.40039"
       r="6.4359469"
       inkscape:export-xdpi="90"
       inkscape:export-ydpi="90" />
    <circle
       style="opacity:1;fill:#2b0000;fill-opacity:1;stroke:none;stroke-width:1;stroke-miterlimit:4;stroke-dasharray:3, 3;stroke-dashoffset:0;stroke-opacity:0.5372549"
       id="path8070-77"
       cx="680.32617"
       cy="842.14252"
       r="6.4359469"
       inkscape:export-xdpi="90"
       inkscape:export-ydpi="90" />
    <circle
       style="opacity:1;fill:#2b0000;fill-opacity:1;stroke:none;stroke-width:1;stroke-miterlimit:4;stroke-dasharray:3, 3;stroke-dashoffset:0;stroke-opacity:0.5372549"
       id="path8070-23"
       cx="770.53351"
       cy="844.9762"
       r="6.4359469"
       inkscape:export-xdpi="90"
       inkscape:export-ydpi="90" />
    <circle
       style="opacity:1;fill:#2b0000;fill-opacity:1;stroke:none;stroke-width:1;stroke-miterlimit:4;stroke-dasharray:3, 3;stroke-dashoffset:0;stroke-opacity:0.5372549"
       id="path8070-72"
       cx="849.40588"
       cy="808.60992"
       r="6.4359469"
       inkscape:export-xdpi="90"
       inkscape:export-ydpi="90" />
    <path
       inkscape:export-ydpi="90"
       inkscape:export-xdpi="90"
       style="fill:#ffadb9;fill-opacity:1;fill-rule:evenodd;stroke:none;stroke-width:1px;stroke-linecap:butt;stroke-linejoin:miter;stroke-opacity:1"
       d="m 933.74986,817.25493 54.10139,74.80686 34.73175,-46.08637 -13.3584,-52.09763 z"
       id="path18723"
       inkscape:connector-curvature="0" />
    <circle
       style="opacity:1;fill:#2b0000;fill-opacity:1;stroke:none;stroke-width:1;stroke-miterlimit:4;stroke-dasharray:3, 3;stroke-dashoffset:0;stroke-opacity:0.5372549"
       id="path8070-53"
       cx="933.47345"
       cy="817.11115"
       r="6.4359469"
       inkscape:export-xdpi="90"
       inkscape:export-ydpi="90" />
    <circle
       style="opacity:1;fill:#2b0000;fill-opacity:1;stroke:none;stroke-width:1;stroke-miterlimit:4;stroke-dasharray:3, 3;stroke-dashoffset:0;stroke-opacity:0.5372549"
       id="path8070-76"
       cx="987.31445"
       cy="891.26062"
       r="6.4359469"
       inkscape:export-xdpi="90"
       inkscape:export-ydpi="90" />
    <circle
       style="opacity:1;fill:#2b0000;fill-opacity:1;stroke:none;stroke-width:1;stroke-miterlimit:4;stroke-dasharray:3, 3;stroke-dashoffset:0;stroke-opacity:0.5372549"
       id="path8070-8"
       cx="1019.9024"
       cy="848.28229"
       r="6.4359469"
       inkscape:export-xdpi="90"
       inkscape:export-ydpi="90" />
    <circle
       style="opacity:1;fill:#2b0000;fill-opacity:1;stroke:none;stroke-width:1;stroke-miterlimit:4;stroke-dasharray:3, 3;stroke-dashoffset:0;stroke-opacity:0.5372549"
       id="path8070-13"
       cx="1009.5121"
       cy="794.44122"
       r="6.4359469"
       inkscape:export-xdpi="90"
       inkscape:export-ydpi="90" />
    <circle
       style="opacity:1;fill:#2b0000;fill-opacity:1;stroke:none;stroke-width:1;stroke-miterlimit:4;stroke-dasharray:3, 3;stroke-dashoffset:0;stroke-opacity:0.5372549"
       id="path8070-64"
       cx="1067.1313"
       cy="718.87488"
       r="6.4359469"
       inkscape:export-xdpi="90"
       inkscape:export-ydpi="90" />
    <path
       inkscape:export-ydpi="90"
       inkscape:export-xdpi="90"
       style="fill:none;fill-rule:evenodd;stroke:#000000;stroke-width:2;stroke-linecap:butt;stroke-linejoin:miter;stroke-miterlimit:4;stroke-dasharray:none;stroke-opacity:1"
       d="M 157.62868,369.74962 267.1673,401.8097"
       id="path18690"
       inkscape:connector-curvature="0" />
    <path
       inkscape:export-ydpi="90"
       inkscape:export-xdpi="90"
       style="fill:none;fill-rule:evenodd;stroke:#000000;stroke-width:1.79999995;stroke-linecap:butt;stroke-linejoin:miter;stroke-miterlimit:4;stroke-dasharray:none;stroke-opacity:1"
       d="M 125.90256,771.63611 230.49858,876.23213"
       id="path18711"
       inkscape:connector-curvature="0" />
    <path
       inkscape:export-ydpi="90"
       inkscape:export-xdpi="90"
       style="fill:none;fill-rule:evenodd;stroke:#000000;stroke-width:1.79999995;stroke-linecap:butt;stroke-linejoin:miter;stroke-miterlimit:4;stroke-dasharray:14.4, 1.8;stroke-dashoffset:0;stroke-opacity:1"
       d="M 124.70031,869.01861 229.29633,765.62484"
       id="path18713"
       inkscape:connector-curvature="0" />
    <path
       inkscape:export-ydpi="90"
       inkscape:export-xdpi="90"
       style="fill:none;fill-rule:evenodd;stroke:#000000;stroke-width:2;stroke-linecap:butt;stroke-linejoin:miter;stroke-miterlimit:4;stroke-dasharray:none;stroke-opacity:1"
       d="m 679.94087,841.29999 91.50482,3.33959 78.14645,-36.06759 86.16147,8.01502 52.76555,76.81062 32.72794,-45.41845 -11.3546,-54.76931 -76.14264,24.71298"
       id="path18717"
       inkscape:connector-curvature="0" />
    <path
       inkscape:export-ydpi="90"
       inkscape:export-xdpi="90"
       style="fill:none;fill-rule:evenodd;stroke:#000000;stroke-width:2;stroke-linecap:butt;stroke-linejoin:miter;stroke-miterlimit:4;stroke-dasharray:24, 2;stroke-dashoffset:0;stroke-opacity:1"
       d="m 987.85125,892.06179 20.70545,-98.85192"
       id="path18719"
       inkscape:connector-curvature="0" />
    <path
       inkscape:export-ydpi="90"
       inkscape:export-xdpi="90"
       style="fill:none;fill-rule:evenodd;stroke:#000000;stroke-width:2;stroke-linecap:butt;stroke-linejoin:miter;stroke-miterlimit:4;stroke-dasharray:none;stroke-opacity:1"
       d="m 933.74986,816.58701 89.50104,32.06008"
       id="path18721"
       inkscape:connector-curvature="0" />
    <path
       inkscape:export-ydpi="90"
       inkscape:export-xdpi="90"
       style="fill:none;fill-rule:evenodd;stroke:#000000;stroke-width:2;stroke-linecap:butt;stroke-linejoin:miter;stroke-miterlimit:4;stroke-dasharray:none;stroke-opacity:1"
       d="m 1009.2246,795.21362 57.441,-76.81061"
       id="path18725"
       inkscape:connector-curvature="0" />
    <g
       inkscape:export-ydpi="90"
       inkscape:export-xdpi="90"
       style="font-style:normal;font-variant:normal;font-weight:normal;font-stretch:normal;letter-spacing:normal;word-spacing:normal;text-anchor:start;fill:none;fill-opacity:1;fill-rule:evenodd;stroke:#000000;stroke-linecap:butt;stroke-linejoin:miter;stroke-miterlimit:10.43299961;stroke-dasharray:none;stroke-dashoffset:0;stroke-opacity:1"
       id="g19650"
       transform="matrix(3,0,0,-3,58.567537,2968.6802)"
       xml:space="preserve"
       stroke-miterlimit="10.433"
       font-style="normal"
       font-variant="normal"
       font-weight="normal"
       font-stretch="normal"
       font-size-adjust="none"
       letter-spacing="normal"
       word-spacing="normal"
       ns0:text="Fun stuff!"
       ns0:preamble=""><path
         style="fill:#000000;stroke-width:0"
         inkscape:connector-curvature="0"
         d="m 229.24,663.99 -5.48,0 0,-0.31 0.24,0 c 0.77,0 0.79,-0.11 0.79,-0.46 l 0,-5.21 c 0,-0.36 -0.02,-0.47 -0.79,-0.47 l -0.24,0 0,-0.31 c 0.35,0.04 1.13,0.04 1.52,0.04 0.41,0 1.31,0 1.67,-0.04 l 0,0.31 -0.33,0 c -0.94,0 -0.94,0.13 -0.94,0.48 l 0,2.44 0.85,0 c 0.96,0 1.06,-0.31 1.06,-1.16 l 0.25,0 0,2.63 -0.25,0 c 0,-0.83 -0.1,-1.16 -1.06,-1.16 l -0.85,0 0,2.51 c 0,0.33 0.02,0.4 0.48,0.4 l 1.2,0 c 1.5,0 1.75,-0.55 1.91,-1.92 l 0.24,0 z"
         id="path19652" /><path
         style="fill:#000000;stroke-width:0"
         inkscape:connector-curvature="0"
         d="m 233.01,658.02 0,-0.89 1.43,0.1 0,0.31 c -0.69,0 -0.77,0.07 -0.77,0.56 l 0,3.53 -1.47,-0.11 0,-0.31 c 0.7,0 0.78,-0.07 0.78,-0.56 l 0,-1.77 c 0,-0.86 -0.48,-1.54 -1.21,-1.54 -0.84,0 -0.88,0.47 -0.88,0.99 l 0,3.3 -1.46,-0.11 0,-0.31 c 0.78,0 0.78,-0.03 0.78,-0.92 l 0,-1.49 c 0,-0.77 0,-1.67 1.51,-1.67 0.56,0 1,0.27 1.29,0.89 z"
         id="path19654" /><path
         style="fill:#000000;stroke-width:0"
         inkscape:connector-curvature="0"
         d="m 235.74,660.65 0,-2.66 c 0,-0.45 -0.11,-0.45 -0.78,-0.45 l 0,-0.31 c 0.35,0.01 0.86,0.04 1.13,0.04 0.26,0 0.78,-0.03 1.12,-0.04 l 0,0.31 c -0.67,0 -0.78,0 -0.78,0.45 l 0,1.83 c 0,1.03 0.71,1.59 1.34,1.59 0.63,0 0.74,-0.54 0.74,-1.11 l 0,-2.31 c 0,-0.45 -0.11,-0.45 -0.77,-0.45 l 0,-0.31 c 0.34,0.01 0.85,0.04 1.12,0.04 0.26,0 0.78,-0.03 1.12,-0.04 l 0,0.31 c -0.52,0 -0.77,0 -0.78,0.3 l 0,1.9 c 0,0.85 0,1.16 -0.31,1.52 -0.14,0.17 -0.47,0.37 -1.04,0.37 -0.73,0 -1.2,-0.43 -1.48,-1.05 l 0,1.05 -1.41,-0.11 0,-0.31 c 0.7,0 0.78,-0.07 0.78,-0.56 z"
         id="path19656" /><path
         style="fill:#000000;stroke-width:0"
         inkscape:connector-curvature="0"
         d="m 245.57,659.16 0.02,0 0.03,-0.01 0.03,0 0.03,-0.01 0.03,-0.01 0.04,-0.01 0.04,-0.01 0.04,-0.01 0.04,-0.01 0.04,-0.01 0.04,-0.02 0.05,-0.02 0.04,-0.01 0.04,-0.03 0.05,-0.02 0.04,-0.02 0.04,-0.03 0.05,-0.03 0.04,-0.03 0.04,-0.03 0.04,-0.03 0.03,-0.04 0.04,-0.04 0.03,-0.04 0.03,-0.05 0.01,-0.02 0.01,-0.03 0.01,-0.02 0.01,-0.03 0.01,-0.02 0.01,-0.03 0.01,-0.03 0.01,-0.02 0,-0.03 0.01,-0.03 0,-0.03 0.01,-0.04 0,-0.03 0,-0.03 c 0,-0.51 -0.35,-0.91 -1.13,-0.91 -0.84,0 -1.19,0.57 -1.38,1.42 -0.03,0.12 -0.05,0.16 -0.14,0.16 -0.13,0 -0.13,-0.07 -0.13,-0.25 l 0,-1.31 c 0,-0.16 0,-0.23 0.1,-0.23 0.06,0 0.06,0.01 0.25,0.19 0.03,0.02 0.03,0.04 0.2,0.23 0.44,-0.41 0.89,-0.42 1.1,-0.42 1.15,0 1.61,0.66 1.61,1.38 0,0.52 -0.3,0.82 -0.42,0.94 -0.33,0.32 -0.72,0.4 -1.14,0.48 -0.56,0.11 -1.23,0.23 -1.23,0.81 0,0.35 0.26,0.76 1.12,0.76 1.1,0 1.15,-0.9 1.17,-1.21 0.01,-0.08 0.1,-0.08 0.12,-0.08 0.13,0 0.13,0.05 0.13,0.23 l 0,1.01 c 0,0.17 0,0.23 -0.11,0.23 -0.05,0 -0.07,0 -0.2,-0.11 -0.03,-0.04 -0.13,-0.13 -0.17,-0.16 -0.38,0.27 -0.79,0.27 -0.94,0.27 -1.21,0 -1.59,-0.66 -1.59,-1.22 0,-0.34 0.16,-0.62 0.43,-0.84 0.31,-0.26 0.59,-0.32 1.31,-0.46 z"
         id="path19658" /><path
         style="fill:#000000;stroke-width:0"
         inkscape:connector-curvature="0"
         d="m 249.15,661.21 1.43,0 0,0.31 -1.43,0 0,1.82 -0.25,0 c -0.01,-0.81 -0.31,-1.87 -1.28,-1.91 l 0,-0.22 0.84,0 0,-2.74 c 0,-1.23 0.93,-1.34 1.29,-1.34 0.71,0 0.99,0.7 0.99,1.34 l 0,0.56 -0.25,0 0,-0.54 c 0,-0.74 -0.3,-1.12 -0.67,-1.12 -0.67,0 -0.67,0.91 -0.67,1.08 z"
         id="path19660" /><path
         style="fill:#000000;stroke-width:0"
         inkscape:connector-curvature="0"
         d="m 255.2,658.02 0,-0.89 1.44,0.1 0,0.31 c -0.7,0 -0.78,0.07 -0.78,0.56 l 0,3.53 -1.47,-0.11 0,-0.31 c 0.7,0 0.78,-0.07 0.78,-0.56 l 0,-1.77 c 0,-0.86 -0.48,-1.54 -1.21,-1.54 -0.84,0 -0.87,0.47 -0.87,0.99 l 0,3.3 -1.47,-0.11 0,-0.31 c 0.78,0 0.78,-0.03 0.78,-0.92 l 0,-1.49 c 0,-0.77 0,-1.67 1.51,-1.67 0.56,0 1,0.27 1.29,0.89 z"
         id="path19662" /><path
         style="fill:#000000;stroke-width:0"
         inkscape:connector-curvature="0"
         d="m 261.3,661.21 1.15,0 0,0.31 -1.18,0 0,1.15 c 0,0.88 0.48,1.35 0.93,1.35 0.03,0 0.18,0 0.33,-0.07 -0.12,-0.04 -0.3,-0.17 -0.3,-0.42 0,-0.23 0.16,-0.42 0.43,-0.42 0.29,0 0.44,0.19 0.44,0.43 0,0.36 -0.35,0.7 -0.91,0.7 -0.59,0 -1.03,-0.38 -1.08,-0.42 -0.29,0.37 -0.84,0.42 -1.11,0.42 l -0.01,-0.22 c 0.49,0 0.77,-0.19 0.77,-0.19 l 0,-0.01 c -0.16,-0.02 -0.36,-0.15 -0.36,-0.43 0,-0.06 0.01,-0.3 0.27,-0.39 -0.03,-0.13 -0.03,-0.22 -0.03,-0.34 l 0,-1.14 -2.12,0 0,1.12 c 0,0.96 0.82,1.38 1.47,1.38 l 0.01,0.22 c -0.95,0 -2.11,-0.52 -2.11,-1.59 l 0,-1.13 -0.78,0 0,-0.31 0.78,0 0,-3.22 c 0,-0.45 -0.11,-0.45 -0.78,-0.45 l 0,-0.31 c 0.33,0.01 0.86,0.04 1.11,0.04 0.25,0 0.74,-0.03 1.11,-0.04 l 0,0.31 c -0.67,0 -0.78,0 -0.78,0.45 l 0,3.22 2.09,0 0,-3.22 c 0,-0.45 -0.1,-0.45 -0.77,-0.45 l 0,-0.31 c 0.39,0.01 0.86,0.04 1.13,0.04 0.4,0 0.87,0 1.27,-0.04 l 0,0.31 -0.21,0 c -0.74,0 -0.76,0.11 -0.76,0.47 z"
         id="path19664" /><path
         style="fill:#000000;stroke-width:0"
         inkscape:connector-curvature="0"
         d="m 264.95,659.31 0.39,4.53 c 0,0.33 -0.27,0.51 -0.53,0.51 -0.26,0 -0.53,-0.18 -0.53,-0.51 l 0.39,-4.52 c 0.01,-0.15 0.02,-0.23 0.14,-0.23 0.1,0 0.13,0.05 0.14,0.22 z"
         id="path19666" /><path
         style="fill:#000000;stroke-width:0"
         inkscape:connector-curvature="0"
         d="m 265.34,657.76 0,0.03 0,0.03 -0.01,0.02 0,0.03 -0.01,0.02 -0.01,0.03 0,0.02 -0.01,0.03 -0.01,0.02 -0.02,0.02 -0.01,0.02 -0.01,0.03 -0.02,0.02 -0.01,0.02 -0.02,0.01 -0.02,0.02 -0.02,0.02 -0.02,0.02 -0.02,0.01 -0.02,0.02 -0.02,0.01 -0.02,0.01 -0.02,0.02 -0.03,0.01 -0.02,0.01 -0.02,0 -0.03,0.01 -0.02,0.01 -0.03,0 -0.03,0.01 -0.02,0 -0.03,0 c -0.29,0 -0.53,-0.24 -0.53,-0.53 0,-0.29 0.24,-0.53 0.53,-0.53 0.29,0 0.53,0.24 0.53,0.53 z"
         id="path19668" /></g>    <g
       style="font-style:normal;font-variant:normal;font-weight:normal;font-stretch:normal;letter-spacing:normal;word-spacing:normal;text-anchor:start;fill:none;fill-opacity:1;fill-rule:evenodd;stroke:#000000;stroke-linecap:butt;stroke-linejoin:miter;stroke-miterlimit:10.43299961;stroke-dasharray:none;stroke-dashoffset:0;stroke-opacity:1"
       ns0:preamble=""
       ns0:text="1-simplex!\n"
       word-spacing="normal"
       letter-spacing="normal"
       font-size-adjust="none"
       font-stretch="normal"
       font-weight="normal"
       font-variant="normal"
       font-style="normal"
       stroke-miterlimit="10.433"
       xml:space="preserve"
       transform="matrix(3,0,0,-3,-543.42018,2533.1974)"
       id="content"><path
         id="path8294"
         d="m 226.36,663.59 0,0.01 0,0.01 0,0.02 0,0.01 0,0 0,0.01 0,0.01 0,0.01 0,0.01 0,0.01 0,0.01 0,0.01 0,0 0,0.01 0,0.01 0,0 0,0.01 0,0.01 0,0.01 -0.01,0.01 0,0.01 0,0.01 -0.01,0.01 0,0 0,0.01 -0.01,0.01 -0.01,0 0,0.01 -0.01,0 -0.01,0.01 -0.01,0 0,0 -0.01,0 0,0 -0.01,0 0,0 -0.01,0.01 -0.01,0 0,0 -0.01,0 -0.01,0 0,0 -0.01,0 -0.01,0 -0.01,0 -0.01,0 -0.01,0 -0.01,0 -0.01,0 -0.01,0 -0.01,0 -0.01,0 c -0.61,-0.63 -1.49,-0.63 -1.81,-0.63 l 0,-0.31 c 0.2,0 0.79,0 1.31,0.25 l 0,-5.14 c 0,-0.36 -0.03,-0.48 -0.93,-0.48 l -0.32,0 0,-0.31 c 0.35,0.04 1.22,0.04 1.61,0.04 0.4,0 1.27,0 1.62,-0.04 l 0,0.31 -0.32,0 c -0.9,0 -0.93,0.11 -0.93,0.48 z"
         inkscape:connector-curvature="0"
         style="fill:#000000;stroke-width:0" /><polygon
         id="polygon8296"
         points="231.17,659.67 228.52,659.67 228.52,659.09 231.17,659.09 "
         style="fill:#000000;stroke-width:0" /><path
         id="path8298"
         d="m 233.81,659.16 0.02,0 0.03,-0.01 0.02,0 0.04,-0.01 0.03,-0.01 0.04,-0.01 0.03,-0.01 0.04,-0.01 0.04,-0.01 0.05,-0.01 0.04,-0.02 0.04,-0.02 0.05,-0.01 0.04,-0.03 0.04,-0.02 0.05,-0.02 0.04,-0.03 0.04,-0.03 0.04,-0.03 0.04,-0.03 0.04,-0.03 0.04,-0.04 0.03,-0.04 0.03,-0.04 0.03,-0.05 0.02,-0.02 0.01,-0.03 0.01,-0.02 0.01,-0.03 0.01,-0.02 0.01,-0.03 0.01,-0.03 0,-0.02 0.01,-0.03 0.01,-0.03 0,-0.03 0,-0.04 0,-0.03 0.01,-0.03 c 0,-0.51 -0.35,-0.91 -1.13,-0.91 -0.84,0 -1.2,0.57 -1.39,1.42 -0.03,0.12 -0.04,0.16 -0.14,0.16 -0.13,0 -0.13,-0.07 -0.13,-0.25 l 0,-1.31 c 0,-0.16 0,-0.23 0.11,-0.23 0.05,0 0.06,0.01 0.25,0.19 0.02,0.02 0.02,0.04 0.2,0.23 0.44,-0.41 0.89,-0.42 1.1,-0.42 1.15,0 1.6,0.66 1.6,1.38 0,0.52 -0.3,0.82 -0.42,0.94 -0.32,0.32 -0.71,0.4 -1.13,0.48 -0.56,0.11 -1.23,0.23 -1.23,0.81 0,0.35 0.26,0.76 1.12,0.76 1.1,0 1.14,-0.9 1.16,-1.21 0.02,-0.08 0.11,-0.08 0.13,-0.08 0.12,0 0.12,0.05 0.12,0.23 l 0,1.01 c 0,0.17 0,0.23 -0.11,0.23 -0.05,0 -0.06,0 -0.2,-0.11 -0.02,-0.04 -0.12,-0.13 -0.16,-0.16 -0.38,0.27 -0.79,0.27 -0.94,0.27 -1.22,0 -1.6,-0.66 -1.6,-1.22 0,-0.34 0.16,-0.62 0.43,-0.84 0.32,-0.26 0.6,-0.32 1.32,-0.46 z"
         inkscape:connector-curvature="0"
         style="fill:#000000;stroke-width:0" /><path
         id="path8300"
         d="m 237.43,661.63 -1.4,-0.11 0,-0.31 c 0.65,0 0.74,-0.06 0.74,-0.55 l 0,-2.67 c 0,-0.45 -0.11,-0.45 -0.78,-0.45 l 0,-0.31 c 0.32,0.01 0.86,0.04 1.1,0.04 0.35,0 0.7,-0.03 1.04,-0.04 l 0,0.31 c -0.66,0 -0.7,0.05 -0.7,0.44 z"
         inkscape:connector-curvature="0"
         style="fill:#000000;stroke-width:0" /><path
         id="path8302"
         d="m 237.47,663.35 0,0.03 0,0.03 -0.01,0.03 0,0.03 -0.01,0.02 -0.01,0.03 -0.01,0.03 -0.01,0.02 -0.01,0.02 -0.01,0.03 -0.01,0.02 -0.02,0.02 -0.01,0.02 -0.02,0.02 -0.01,0.02 -0.02,0.02 -0.02,0.01 -0.02,0.02 -0.02,0.01 -0.02,0.02 -0.02,0.01 -0.02,0.01 -0.03,0.01 -0.02,0.01 -0.02,0.01 -0.03,0.01 -0.02,0.01 -0.03,0 -0.02,0.01 -0.03,0 -0.02,0 -0.03,0 c -0.31,0 -0.53,-0.27 -0.53,-0.53 0,-0.26 0.22,-0.52 0.53,-0.52 0.28,0 0.53,0.21 0.53,0.52 z"
         inkscape:connector-curvature="0"
         style="fill:#000000;stroke-width:0" /><path
         id="path8304"
         d="m 239.53,660.65 0,-2.66 c 0,-0.45 -0.11,-0.45 -0.78,-0.45 l 0,-0.31 c 0.35,0.01 0.86,0.04 1.13,0.04 0.26,0 0.77,-0.03 1.11,-0.04 l 0,0.31 c -0.67,0 -0.77,0 -0.77,0.45 l 0,1.83 c 0,1.03 0.7,1.59 1.34,1.59 0.63,0 0.74,-0.54 0.74,-1.11 l 0,-2.31 c 0,-0.45 -0.11,-0.45 -0.78,-0.45 l 0,-0.31 c 0.35,0.01 0.86,0.04 1.13,0.04 0.26,0 0.78,-0.03 1.12,-0.04 l 0,0.31 c -0.67,0 -0.78,0 -0.78,0.45 l 0,1.83 c 0,1.03 0.71,1.59 1.34,1.59 0.63,0 0.74,-0.54 0.74,-1.11 l 0,-2.31 c 0,-0.45 -0.11,-0.45 -0.78,-0.45 l 0,-0.31 c 0.35,0.01 0.86,0.04 1.13,0.04 0.26,0 0.78,-0.03 1.12,-0.04 l 0,0.31 c -0.52,0 -0.77,0 -0.78,0.3 l 0,1.9 c 0,0.85 0,1.16 -0.31,1.52 -0.14,0.17 -0.47,0.37 -1.05,0.37 -0.83,0 -1.27,-0.6 -1.44,-0.98 -0.14,0.87 -0.88,0.98 -1.33,0.98 -0.73,0 -1.2,-0.43 -1.47,-1.05 l 0,1.05 -1.41,-0.11 0,-0.31 c 0.7,0 0.78,-0.07 0.78,-0.56 z"
         inkscape:connector-curvature="0"
         style="fill:#000000;stroke-width:0" /><path
         id="path8306"
         d="m 248.45,660.97 0,0.66 -1.44,-0.11 0,-0.31 c 0.71,0 0.78,-0.06 0.78,-0.5 l 0,-4.65 c 0,-0.44 -0.11,-0.44 -0.78,-0.44 l 0,-0.31 c 0.34,0.01 0.86,0.03 1.12,0.03 0.27,0 0.78,-0.02 1.13,-0.03 l 0,0.31 c -0.67,0 -0.78,0 -0.78,0.44 l 0,1.67 0,0.09 0.14,0.13 c -0.14,0.21 -0.14,0.22 -0.14,0.42 l 0,0 0,2.21 c 0.29,0.51 0.78,0.8 1.28,0.8 0.73,0 1.34,-0.88 1.34,-2 0,-1.2 -0.7,-2.04 -1.44,-2.04 -0.4,0 -0.77,0.2 -1.04,0.61 l -0.14,-0.13 c 0.05,-0.16 0.47,-0.69 1.22,-0.69 1.19,0 2.23,0.97 2.23,2.25 0,1.26 -0.97,2.25 -2.09,2.25 -0.77,0 -1.19,-0.44 -1.39,-0.66 z"
         inkscape:connector-curvature="0"
         style="fill:#000000;stroke-width:0" /><path
         id="path8308"
         d="m 254.03,664.13 -1.43,-0.11 0,-0.31 c 0.69,0 0.78,-0.07 0.78,-0.55 l 0,-5.17 c 0,-0.45 -0.12,-0.45 -0.78,-0.45 l 0,-0.31 c 0.33,0.01 0.85,0.04 1.1,0.04 0.25,0 0.74,-0.03 1.11,-0.04 l 0,0.31 c -0.67,0 -0.78,0 -0.78,0.45 z"
         inkscape:connector-curvature="0"
         style="fill:#000000;stroke-width:0" /><path
         id="path8310"
         d="m 256.14,659.53 0.01,0.21 c 0.06,1.48 0.9,1.73 1.24,1.73 1.03,0 1.13,-1.34 1.13,-1.73 l -2.37,0 -0.01,-0.21 2.78,0 c 0.22,0 0.25,0 0.25,0.21 0,0.98 -0.53,1.94 -1.78,1.94 -1.16,0 -2.07,-1.02 -2.07,-2.26 0,-1.33 1.04,-2.29 2.19,-2.29 1.22,0 1.66,1.1 1.66,1.29 0,0.1 -0.08,0.12 -0.13,0.12 -0.09,0 -0.11,-0.06 -0.13,-0.14 -0.34,-1.03 -1.24,-1.03 -1.34,-1.03 -0.5,0 -0.9,0.3 -1.13,0.67 -0.3,0.48 -0.3,1.13 -0.3,1.49 z"
         inkscape:connector-curvature="0"
         style="fill:#000000;stroke-width:0" /><path
         id="path8312"
         d="m 262.33,659.57 0.05,0.07 0.06,0.08 0.06,0.07 0.06,0.08 0.12,0.15 0.06,0.08 0.07,0.08 0.06,0.07 0.06,0.07 0.05,0.07 0.06,0.07 0.03,0.03 0.02,0.03 0.03,0.04 0.03,0.03 0.02,0.02 0.03,0.03 0.02,0.03 0.02,0.02 c 0.31,0.36 0.72,0.51 1.19,0.52 l 0,0.31 c -0.26,-0.02 -0.56,-0.03 -0.82,-0.03 -0.3,0 -0.83,0.02 -0.96,0.03 l 0,-0.31 c 0.21,-0.02 0.29,-0.15 0.29,-0.31 0,-0.16 -0.1,-0.29 -0.15,-0.35 l -0.62,-0.77 -0.77,1 c -0.09,0.1 -0.09,0.12 -0.09,0.18 0,0.15 0.15,0.24 0.35,0.25 l 0,0.31 c -0.26,-0.01 -0.92,-0.03 -1.08,-0.03 -0.21,0 -0.68,0.01 -0.95,0.03 l 0,-0.31 c 0.7,0 0.71,-0.01 1.18,-0.61 l 0.99,-1.28 -0.94,-1.18 c -0.48,-0.58 -1.07,-0.6 -1.28,-0.6 l 0,-0.31 c 0.26,0.03 0.57,0.04 0.83,0.04 0.29,0 0.71,-0.03 0.95,-0.04 l 0,0.31 c -0.22,0.03 -0.29,0.16 -0.29,0.31 0,0.22 0.29,0.55 0.9,1.26 l 0.75,-0.99 c 0.08,-0.11 0.21,-0.27 0.21,-0.33 0,-0.09 -0.09,-0.24 -0.36,-0.25 l 0,-0.31 c 0.3,0.01 0.86,0.04 1.08,0.04 0.27,0 0.66,-0.01 0.96,-0.04 l 0,0.31 c -0.54,0 -0.72,0.02 -0.95,0.31 z"
         inkscape:connector-curvature="0"
         style="fill:#000000;stroke-width:0" /><path
         id="path8314"
         d="m 266.25,659.31 0.39,4.53 c 0,0.33 -0.27,0.51 -0.53,0.51 -0.26,0 -0.53,-0.18 -0.53,-0.51 l 0.39,-4.52 c 0.01,-0.15 0.02,-0.23 0.14,-0.23 0.1,0 0.13,0.05 0.14,0.22 z"
         inkscape:connector-curvature="0"
         style="fill:#000000;stroke-width:0" /><path
         id="path8316"
         d="m 266.64,657.76 -0.01,0.03 0,0.03 0,0.02 -0.01,0.03 0,0.02 -0.01,0.03 -0.01,0.02 -0.01,0.03 -0.01,0.02 -0.01,0.02 -0.01,0.02 -0.02,0.03 -0.01,0.02 -0.02,0.02 -0.01,0.01 -0.02,0.02 -0.02,0.02 -0.02,0.02 -0.02,0.01 -0.02,0.02 -0.02,0.01 -0.02,0.01 -0.03,0.02 -0.02,0.01 -0.02,0.01 -0.03,0 -0.02,0.01 -0.03,0.01 -0.02,0 -0.03,0.01 -0.03,0 -0.02,0 c -0.29,0 -0.53,-0.24 -0.53,-0.53 0,-0.29 0.24,-0.53 0.53,-0.53 0.29,0 0.53,0.24 0.53,0.53 z"
         inkscape:connector-curvature="0"
         style="fill:#000000;stroke-width:0" /></g>    <g
       id="g8527"
       transform="matrix(3,0,0,-3,84.489337,2546.9434)"
       xml:space="preserve"
       stroke-miterlimit="10.433"
       font-style="normal"
       font-variant="normal"
       font-weight="normal"
       font-stretch="normal"
       font-size-adjust="none"
       letter-spacing="normal"
       word-spacing="normal"
       ns0:text="2-simplex!\n"
       ns0:preamble=""
       style="font-style:normal;font-variant:normal;font-weight:normal;font-stretch:normal;letter-spacing:normal;word-spacing:normal;text-anchor:start;fill:none;fill-opacity:1;fill-rule:evenodd;stroke:#000000;stroke-linecap:butt;stroke-linejoin:miter;stroke-miterlimit:10.43299961;stroke-dasharray:none;stroke-dashoffset:0;stroke-opacity:1"><path
         style="fill:#000000;stroke-width:0"
         inkscape:connector-curvature="0"
         d="m 224.7,658 1.06,1.02 c 1.55,1.37 2.15,1.91 2.15,2.9 0,1.14 -0.9,1.93 -2.12,1.93 -1.12,0 -1.86,-0.91 -1.86,-1.8 0,-0.55 0.5,-0.55 0.53,-0.55 0.17,0 0.52,0.12 0.52,0.52 0,0.26 -0.18,0.52 -0.53,0.52 -0.08,0 -0.1,0 -0.13,-0.01 0.23,0.64 0.77,1.01 1.35,1.01 0.9,0 1.33,-0.8 1.33,-1.62 0,-0.79 -0.5,-1.58 -1.04,-2.19 l -1.92,-2.13 c -0.11,-0.11 -0.11,-0.13 -0.11,-0.37 l 3.7,0 0.28,1.73 -0.25,0 c -0.05,-0.3 -0.12,-0.73 -0.22,-0.88 C 227.37,658 226.71,658 226.49,658 Z"
         id="path8529" /><polygon
         style="fill:#000000;stroke-width:0"
         points="231.17,659.67 228.52,659.67 228.52,659.09 231.17,659.09 "
         id="polygon8531" /><path
         style="fill:#000000;stroke-width:0"
         inkscape:connector-curvature="0"
         d="m 233.81,659.16 0.02,0 0.03,-0.01 0.02,0 0.04,-0.01 0.03,-0.01 0.04,-0.01 0.03,-0.01 0.04,-0.01 0.04,-0.01 0.05,-0.01 0.04,-0.02 0.04,-0.02 0.05,-0.01 0.04,-0.03 0.04,-0.02 0.05,-0.02 0.04,-0.03 0.04,-0.03 0.04,-0.03 0.04,-0.03 0.04,-0.03 0.04,-0.04 0.03,-0.04 0.03,-0.04 0.03,-0.05 0.02,-0.02 0.01,-0.03 0.01,-0.02 0.01,-0.03 0.01,-0.02 0.01,-0.03 0.01,-0.03 0,-0.02 0.01,-0.03 0.01,-0.03 0,-0.03 0,-0.04 0,-0.03 0.01,-0.03 c 0,-0.51 -0.35,-0.91 -1.13,-0.91 -0.84,0 -1.2,0.57 -1.39,1.42 -0.03,0.12 -0.04,0.16 -0.14,0.16 -0.13,0 -0.13,-0.07 -0.13,-0.25 l 0,-1.31 c 0,-0.16 0,-0.23 0.11,-0.23 0.05,0 0.06,0.01 0.25,0.19 0.02,0.02 0.02,0.04 0.2,0.23 0.44,-0.41 0.89,-0.42 1.1,-0.42 1.15,0 1.6,0.66 1.6,1.38 0,0.52 -0.3,0.82 -0.42,0.94 -0.32,0.32 -0.71,0.4 -1.13,0.48 -0.56,0.11 -1.23,0.23 -1.23,0.81 0,0.35 0.26,0.76 1.12,0.76 1.1,0 1.14,-0.9 1.16,-1.21 0.02,-0.08 0.11,-0.08 0.13,-0.08 0.12,0 0.12,0.05 0.12,0.23 l 0,1.01 c 0,0.17 0,0.23 -0.11,0.23 -0.05,0 -0.06,0 -0.2,-0.11 -0.02,-0.04 -0.12,-0.13 -0.16,-0.16 -0.38,0.27 -0.79,0.27 -0.94,0.27 -1.22,0 -1.6,-0.66 -1.6,-1.22 0,-0.34 0.16,-0.62 0.43,-0.84 0.32,-0.26 0.6,-0.32 1.32,-0.46 z"
         id="path8533" /><path
         style="fill:#000000;stroke-width:0"
         inkscape:connector-curvature="0"
         d="m 237.43,661.63 -1.4,-0.11 0,-0.31 c 0.65,0 0.74,-0.06 0.74,-0.55 l 0,-2.67 c 0,-0.45 -0.11,-0.45 -0.78,-0.45 l 0,-0.31 c 0.32,0.01 0.86,0.04 1.1,0.04 0.35,0 0.7,-0.03 1.04,-0.04 l 0,0.31 c -0.66,0 -0.7,0.05 -0.7,0.44 z"
         id="path8535" /><path
         style="fill:#000000;stroke-width:0"
         inkscape:connector-curvature="0"
         d="m 237.47,663.35 0,0.03 0,0.03 -0.01,0.03 0,0.03 -0.01,0.02 -0.01,0.03 -0.01,0.03 -0.01,0.02 -0.01,0.02 -0.01,0.03 -0.01,0.02 -0.02,0.02 -0.01,0.02 -0.02,0.02 -0.01,0.02 -0.02,0.02 -0.02,0.01 -0.02,0.02 -0.02,0.01 -0.02,0.02 -0.02,0.01 -0.02,0.01 -0.03,0.01 -0.02,0.01 -0.02,0.01 -0.03,0.01 -0.02,0.01 -0.03,0 -0.02,0.01 -0.03,0 -0.02,0 -0.03,0 c -0.31,0 -0.53,-0.27 -0.53,-0.53 0,-0.26 0.22,-0.52 0.53,-0.52 0.28,0 0.53,0.21 0.53,0.52 z"
         id="path8537" /><path
         style="fill:#000000;stroke-width:0"
         inkscape:connector-curvature="0"
         d="m 239.53,660.65 0,-2.66 c 0,-0.45 -0.11,-0.45 -0.78,-0.45 l 0,-0.31 c 0.35,0.01 0.86,0.04 1.13,0.04 0.26,0 0.77,-0.03 1.11,-0.04 l 0,0.31 c -0.67,0 -0.77,0 -0.77,0.45 l 0,1.83 c 0,1.03 0.7,1.59 1.34,1.59 0.63,0 0.74,-0.54 0.74,-1.11 l 0,-2.31 c 0,-0.45 -0.11,-0.45 -0.78,-0.45 l 0,-0.31 c 0.35,0.01 0.86,0.04 1.13,0.04 0.26,0 0.78,-0.03 1.12,-0.04 l 0,0.31 c -0.67,0 -0.78,0 -0.78,0.45 l 0,1.83 c 0,1.03 0.71,1.59 1.34,1.59 0.63,0 0.74,-0.54 0.74,-1.11 l 0,-2.31 c 0,-0.45 -0.11,-0.45 -0.78,-0.45 l 0,-0.31 c 0.35,0.01 0.86,0.04 1.13,0.04 0.26,0 0.78,-0.03 1.12,-0.04 l 0,0.31 c -0.52,0 -0.77,0 -0.78,0.3 l 0,1.9 c 0,0.85 0,1.16 -0.31,1.52 -0.14,0.17 -0.47,0.37 -1.05,0.37 -0.83,0 -1.27,-0.6 -1.44,-0.98 -0.14,0.87 -0.88,0.98 -1.33,0.98 -0.73,0 -1.2,-0.43 -1.47,-1.05 l 0,1.05 -1.41,-0.11 0,-0.31 c 0.7,0 0.78,-0.07 0.78,-0.56 z"
         id="path8539" /><path
         style="fill:#000000;stroke-width:0"
         inkscape:connector-curvature="0"
         d="m 248.45,660.97 0,0.66 -1.44,-0.11 0,-0.31 c 0.71,0 0.78,-0.06 0.78,-0.5 l 0,-4.65 c 0,-0.44 -0.11,-0.44 -0.78,-0.44 l 0,-0.31 c 0.34,0.01 0.86,0.03 1.12,0.03 0.27,0 0.78,-0.02 1.13,-0.03 l 0,0.31 c -0.67,0 -0.78,0 -0.78,0.44 l 0,1.67 0,0.09 0.14,0.13 c -0.14,0.21 -0.14,0.22 -0.14,0.42 l 0,0 0,2.21 c 0.29,0.51 0.78,0.8 1.28,0.8 0.73,0 1.34,-0.88 1.34,-2 0,-1.2 -0.7,-2.04 -1.44,-2.04 -0.4,0 -0.77,0.2 -1.04,0.61 l -0.14,-0.13 c 0.05,-0.16 0.47,-0.69 1.22,-0.69 1.19,0 2.23,0.97 2.23,2.25 0,1.26 -0.97,2.25 -2.09,2.25 -0.77,0 -1.19,-0.44 -1.39,-0.66 z"
         id="path8541" /><path
         style="fill:#000000;stroke-width:0"
         inkscape:connector-curvature="0"
         d="m 254.03,664.13 -1.43,-0.11 0,-0.31 c 0.69,0 0.78,-0.07 0.78,-0.55 l 0,-5.17 c 0,-0.45 -0.12,-0.45 -0.78,-0.45 l 0,-0.31 c 0.33,0.01 0.85,0.04 1.1,0.04 0.25,0 0.74,-0.03 1.11,-0.04 l 0,0.31 c -0.67,0 -0.78,0 -0.78,0.45 z"
         id="path8543" /><path
         style="fill:#000000;stroke-width:0"
         inkscape:connector-curvature="0"
         d="m 256.14,659.53 0.01,0.21 c 0.06,1.48 0.9,1.73 1.24,1.73 1.03,0 1.13,-1.34 1.13,-1.73 l -2.37,0 -0.01,-0.21 2.78,0 c 0.22,0 0.25,0 0.25,0.21 0,0.98 -0.53,1.94 -1.78,1.94 -1.16,0 -2.07,-1.02 -2.07,-2.26 0,-1.33 1.04,-2.29 2.19,-2.29 1.22,0 1.66,1.1 1.66,1.29 0,0.1 -0.08,0.12 -0.13,0.12 -0.09,0 -0.11,-0.06 -0.13,-0.14 -0.34,-1.03 -1.24,-1.03 -1.34,-1.03 -0.5,0 -0.9,0.3 -1.13,0.67 -0.3,0.48 -0.3,1.13 -0.3,1.49 z"
         id="path8545" /><path
         style="fill:#000000;stroke-width:0"
         inkscape:connector-curvature="0"
         d="m 262.33,659.57 0.05,0.07 0.06,0.08 0.06,0.07 0.06,0.08 0.12,0.15 0.06,0.08 0.07,0.08 0.06,0.07 0.06,0.07 0.05,0.07 0.06,0.07 0.03,0.03 0.02,0.03 0.03,0.04 0.03,0.03 0.02,0.02 0.03,0.03 0.02,0.03 0.02,0.02 c 0.31,0.36 0.72,0.51 1.19,0.52 l 0,0.31 c -0.26,-0.02 -0.56,-0.03 -0.82,-0.03 -0.3,0 -0.83,0.02 -0.96,0.03 l 0,-0.31 c 0.21,-0.02 0.29,-0.15 0.29,-0.31 0,-0.16 -0.1,-0.29 -0.15,-0.35 l -0.62,-0.77 -0.77,1 c -0.09,0.1 -0.09,0.12 -0.09,0.18 0,0.15 0.15,0.24 0.35,0.25 l 0,0.31 c -0.26,-0.01 -0.92,-0.03 -1.08,-0.03 -0.21,0 -0.68,0.01 -0.95,0.03 l 0,-0.31 c 0.7,0 0.71,-0.01 1.18,-0.61 l 0.99,-1.28 -0.94,-1.18 c -0.48,-0.58 -1.07,-0.6 -1.28,-0.6 l 0,-0.31 c 0.26,0.03 0.57,0.04 0.83,0.04 0.29,0 0.71,-0.03 0.95,-0.04 l 0,0.31 c -0.22,0.03 -0.29,0.16 -0.29,0.31 0,0.22 0.29,0.55 0.9,1.26 l 0.75,-0.99 c 0.08,-0.11 0.21,-0.27 0.21,-0.33 0,-0.09 -0.09,-0.24 -0.36,-0.25 l 0,-0.31 c 0.3,0.01 0.86,0.04 1.08,0.04 0.27,0 0.66,-0.01 0.96,-0.04 l 0,0.31 c -0.54,0 -0.72,0.02 -0.95,0.31 z"
         id="path8547" /><path
         style="fill:#000000;stroke-width:0"
         inkscape:connector-curvature="0"
         d="m 266.25,659.31 0.39,4.53 c 0,0.33 -0.27,0.51 -0.53,0.51 -0.26,0 -0.53,-0.18 -0.53,-0.51 l 0.39,-4.52 c 0.01,-0.15 0.02,-0.23 0.14,-0.23 0.1,0 0.13,0.05 0.14,0.22 z"
         id="path8549" /><path
         style="fill:#000000;stroke-width:0"
         inkscape:connector-curvature="0"
         d="m 266.64,657.76 -0.01,0.03 0,0.03 0,0.02 -0.01,0.03 0,0.02 -0.01,0.03 -0.01,0.02 -0.01,0.03 -0.01,0.02 -0.01,0.02 -0.01,0.02 -0.02,0.03 -0.01,0.02 -0.02,0.02 -0.01,0.01 -0.02,0.02 -0.02,0.02 -0.02,0.02 -0.02,0.01 -0.02,0.02 -0.02,0.01 -0.02,0.01 -0.03,0.02 -0.02,0.01 -0.02,0.01 -0.03,0 -0.02,0.01 -0.03,0.01 -0.02,0 -0.03,0.01 -0.03,0 -0.02,0 c -0.29,0 -0.53,-0.24 -0.53,-0.53 0,-0.29 0.24,-0.53 0.53,-0.53 0.29,0 0.53,0.24 0.53,0.53 z"
         id="path8551" /></g>    <g
       style="font-style:normal;font-variant:normal;font-weight:normal;font-stretch:normal;letter-spacing:normal;word-spacing:normal;text-anchor:start;fill:none;fill-opacity:1;fill-rule:evenodd;stroke:#000000;stroke-linecap:butt;stroke-linejoin:miter;stroke-miterlimit:10.43299961;stroke-dasharray:none;stroke-dashoffset:0;stroke-opacity:1"
       ns0:preamble=""
       ns0:text="3-simplex!\n"
       word-spacing="normal"
       letter-spacing="normal"
       font-size-adjust="none"
       font-stretch="normal"
       font-weight="normal"
       font-variant="normal"
       font-style="normal"
       stroke-miterlimit="10.433"
       xml:space="preserve"
       transform="matrix(3,0,0,-3,-563.45773,2973.4031)"
       id="g8754"><path
         id="path8756"
         d="m 226.32,660.73 0.08,0.03 0.07,0.03 0.08,0.03 0.07,0.03 0.07,0.04 0.07,0.04 0.06,0.04 0.07,0.04 0.06,0.04 0.06,0.05 0.06,0.05 0.06,0.05 0.05,0.05 0.05,0.05 0.05,0.06 0.05,0.05 0.04,0.06 0.05,0.06 0.04,0.06 0.03,0.06 0.04,0.07 0.03,0.06 0.03,0.07 0.03,0.06 0.02,0.07 0.02,0.07 0.02,0.07 0.01,0.07 0.02,0.07 0,0.07 0.01,0.08 0,0.07 c 0,0.81 -0.88,1.37 -1.84,1.37 -1,0 -1.76,-0.59 -1.76,-1.35 0,-0.33 0.22,-0.52 0.51,-0.52 0.31,0 0.51,0.22 0.51,0.51 0,0.5 -0.47,0.5 -0.62,0.5 0.31,0.48 0.97,0.61 1.33,0.61 0.4,0 0.95,-0.22 0.95,-1.11 0,-0.12 -0.02,-0.7 -0.28,-1.13 -0.3,-0.48 -0.64,-0.51 -0.88,-0.52 -0.08,-0.01 -0.32,-0.03 -0.39,-0.03 -0.08,-0.01 -0.15,-0.02 -0.15,-0.12 0,-0.11 0.07,-0.11 0.24,-0.11 l 0.43,0 c 0.82,0 1.19,-0.67 1.19,-1.65 0,-1.35 -0.69,-1.64 -1.12,-1.64 -0.43,0 -1.18,0.17 -1.53,0.76 0.35,-0.05 0.66,0.17 0.66,0.55 0,0.35 -0.27,0.55 -0.56,0.55 -0.24,0 -0.56,-0.14 -0.56,-0.57 0,-0.91 0.93,-1.56 2.02,-1.56 1.21,0 2.12,0.9 2.12,1.91 0,0.82 -0.63,1.59 -1.67,1.8 z"
         inkscape:connector-curvature="0"
         style="fill:#000000;stroke-width:0" /><polygon
         id="polygon8758"
         points="231.17,659.67 228.52,659.67 228.52,659.09 231.17,659.09 "
         style="fill:#000000;stroke-width:0" /><path
         id="path8760"
         d="m 233.81,659.16 0.02,0 0.03,-0.01 0.02,0 0.04,-0.01 0.03,-0.01 0.04,-0.01 0.03,-0.01 0.04,-0.01 0.04,-0.01 0.05,-0.01 0.04,-0.02 0.04,-0.02 0.05,-0.01 0.04,-0.03 0.04,-0.02 0.05,-0.02 0.04,-0.03 0.04,-0.03 0.04,-0.03 0.04,-0.03 0.04,-0.03 0.04,-0.04 0.03,-0.04 0.03,-0.04 0.03,-0.05 0.02,-0.02 0.01,-0.03 0.01,-0.02 0.01,-0.03 0.01,-0.02 0.01,-0.03 0.01,-0.03 0,-0.02 0.01,-0.03 0.01,-0.03 0,-0.03 0,-0.04 0,-0.03 0.01,-0.03 c 0,-0.51 -0.35,-0.91 -1.13,-0.91 -0.84,0 -1.2,0.57 -1.39,1.42 -0.03,0.12 -0.04,0.16 -0.14,0.16 -0.13,0 -0.13,-0.07 -0.13,-0.25 l 0,-1.31 c 0,-0.16 0,-0.23 0.11,-0.23 0.05,0 0.06,0.01 0.25,0.19 0.02,0.02 0.02,0.04 0.2,0.23 0.44,-0.41 0.89,-0.42 1.1,-0.42 1.15,0 1.6,0.66 1.6,1.38 0,0.52 -0.3,0.82 -0.42,0.94 -0.32,0.32 -0.71,0.4 -1.13,0.48 -0.56,0.11 -1.23,0.23 -1.23,0.81 0,0.35 0.26,0.76 1.12,0.76 1.1,0 1.14,-0.9 1.16,-1.21 0.02,-0.08 0.11,-0.08 0.13,-0.08 0.12,0 0.12,0.05 0.12,0.23 l 0,1.01 c 0,0.17 0,0.23 -0.11,0.23 -0.05,0 -0.06,0 -0.2,-0.11 -0.02,-0.04 -0.12,-0.13 -0.16,-0.16 -0.38,0.27 -0.79,0.27 -0.94,0.27 -1.22,0 -1.6,-0.66 -1.6,-1.22 0,-0.34 0.16,-0.62 0.43,-0.84 0.32,-0.26 0.6,-0.32 1.32,-0.46 z"
         inkscape:connector-curvature="0"
         style="fill:#000000;stroke-width:0" /><path
         id="path8762"
         d="m 237.43,661.63 -1.4,-0.11 0,-0.31 c 0.65,0 0.74,-0.06 0.74,-0.55 l 0,-2.67 c 0,-0.45 -0.11,-0.45 -0.78,-0.45 l 0,-0.31 c 0.32,0.01 0.86,0.04 1.1,0.04 0.35,0 0.7,-0.03 1.04,-0.04 l 0,0.31 c -0.66,0 -0.7,0.05 -0.7,0.44 z"
         inkscape:connector-curvature="0"
         style="fill:#000000;stroke-width:0" /><path
         id="path8764"
         d="m 237.47,663.35 0,0.03 0,0.03 -0.01,0.03 0,0.03 -0.01,0.02 -0.01,0.03 -0.01,0.03 -0.01,0.02 -0.01,0.02 -0.01,0.03 -0.01,0.02 -0.02,0.02 -0.01,0.02 -0.02,0.02 -0.01,0.02 -0.02,0.02 -0.02,0.01 -0.02,0.02 -0.02,0.01 -0.02,0.02 -0.02,0.01 -0.02,0.01 -0.03,0.01 -0.02,0.01 -0.02,0.01 -0.03,0.01 -0.02,0.01 -0.03,0 -0.02,0.01 -0.03,0 -0.02,0 -0.03,0 c -0.31,0 -0.53,-0.27 -0.53,-0.53 0,-0.26 0.22,-0.52 0.53,-0.52 0.28,0 0.53,0.21 0.53,0.52 z"
         inkscape:connector-curvature="0"
         style="fill:#000000;stroke-width:0" /><path
         id="path8766"
         d="m 239.53,660.65 0,-2.66 c 0,-0.45 -0.11,-0.45 -0.78,-0.45 l 0,-0.31 c 0.35,0.01 0.86,0.04 1.13,0.04 0.26,0 0.77,-0.03 1.11,-0.04 l 0,0.31 c -0.67,0 -0.77,0 -0.77,0.45 l 0,1.83 c 0,1.03 0.7,1.59 1.34,1.59 0.63,0 0.74,-0.54 0.74,-1.11 l 0,-2.31 c 0,-0.45 -0.11,-0.45 -0.78,-0.45 l 0,-0.31 c 0.35,0.01 0.86,0.04 1.13,0.04 0.26,0 0.78,-0.03 1.12,-0.04 l 0,0.31 c -0.67,0 -0.78,0 -0.78,0.45 l 0,1.83 c 0,1.03 0.71,1.59 1.34,1.59 0.63,0 0.74,-0.54 0.74,-1.11 l 0,-2.31 c 0,-0.45 -0.11,-0.45 -0.78,-0.45 l 0,-0.31 c 0.35,0.01 0.86,0.04 1.13,0.04 0.26,0 0.78,-0.03 1.12,-0.04 l 0,0.31 c -0.52,0 -0.77,0 -0.78,0.3 l 0,1.9 c 0,0.85 0,1.16 -0.31,1.52 -0.14,0.17 -0.47,0.37 -1.05,0.37 -0.83,0 -1.27,-0.6 -1.44,-0.98 -0.14,0.87 -0.88,0.98 -1.33,0.98 -0.73,0 -1.2,-0.43 -1.47,-1.05 l 0,1.05 -1.41,-0.11 0,-0.31 c 0.7,0 0.78,-0.07 0.78,-0.56 z"
         inkscape:connector-curvature="0"
         style="fill:#000000;stroke-width:0" /><path
         id="path8768"
         d="m 248.45,660.97 0,0.66 -1.44,-0.11 0,-0.31 c 0.71,0 0.78,-0.06 0.78,-0.5 l 0,-4.65 c 0,-0.44 -0.11,-0.44 -0.78,-0.44 l 0,-0.31 c 0.34,0.01 0.86,0.03 1.12,0.03 0.27,0 0.78,-0.02 1.13,-0.03 l 0,0.31 c -0.67,0 -0.78,0 -0.78,0.44 l 0,1.67 0,0.09 0.14,0.13 c -0.14,0.21 -0.14,0.22 -0.14,0.42 l 0,0 0,2.21 c 0.29,0.51 0.78,0.8 1.28,0.8 0.73,0 1.34,-0.88 1.34,-2 0,-1.2 -0.7,-2.04 -1.44,-2.04 -0.4,0 -0.77,0.2 -1.04,0.61 l -0.14,-0.13 c 0.05,-0.16 0.47,-0.69 1.22,-0.69 1.19,0 2.23,0.97 2.23,2.25 0,1.26 -0.97,2.25 -2.09,2.25 -0.77,0 -1.19,-0.44 -1.39,-0.66 z"
         inkscape:connector-curvature="0"
         style="fill:#000000;stroke-width:0" /><path
         id="path8770"
         d="m 254.03,664.13 -1.43,-0.11 0,-0.31 c 0.69,0 0.78,-0.07 0.78,-0.55 l 0,-5.17 c 0,-0.45 -0.12,-0.45 -0.78,-0.45 l 0,-0.31 c 0.33,0.01 0.85,0.04 1.1,0.04 0.25,0 0.74,-0.03 1.11,-0.04 l 0,0.31 c -0.67,0 -0.78,0 -0.78,0.45 z"
         inkscape:connector-curvature="0"
         style="fill:#000000;stroke-width:0" /><path
         id="path8772"
         d="m 256.14,659.53 0.01,0.21 c 0.06,1.48 0.9,1.73 1.24,1.73 1.03,0 1.13,-1.34 1.13,-1.73 l -2.37,0 -0.01,-0.21 2.78,0 c 0.22,0 0.25,0 0.25,0.21 0,0.98 -0.53,1.94 -1.78,1.94 -1.16,0 -2.07,-1.02 -2.07,-2.26 0,-1.33 1.04,-2.29 2.19,-2.29 1.22,0 1.66,1.1 1.66,1.29 0,0.1 -0.08,0.12 -0.13,0.12 -0.09,0 -0.11,-0.06 -0.13,-0.14 -0.34,-1.03 -1.24,-1.03 -1.34,-1.03 -0.5,0 -0.9,0.3 -1.13,0.67 -0.3,0.48 -0.3,1.13 -0.3,1.49 z"
         inkscape:connector-curvature="0"
         style="fill:#000000;stroke-width:0" /><path
         id="path8774"
         d="m 262.33,659.57 0.05,0.07 0.06,0.08 0.06,0.07 0.06,0.08 0.12,0.15 0.06,0.08 0.07,0.08 0.06,0.07 0.06,0.07 0.05,0.07 0.06,0.07 0.03,0.03 0.02,0.03 0.03,0.04 0.03,0.03 0.02,0.02 0.03,0.03 0.02,0.03 0.02,0.02 c 0.31,0.36 0.72,0.51 1.19,0.52 l 0,0.31 c -0.26,-0.02 -0.56,-0.03 -0.82,-0.03 -0.3,0 -0.83,0.02 -0.96,0.03 l 0,-0.31 c 0.21,-0.02 0.29,-0.15 0.29,-0.31 0,-0.16 -0.1,-0.29 -0.15,-0.35 l -0.62,-0.77 -0.77,1 c -0.09,0.1 -0.09,0.12 -0.09,0.18 0,0.15 0.15,0.24 0.35,0.25 l 0,0.31 c -0.26,-0.01 -0.92,-0.03 -1.08,-0.03 -0.21,0 -0.68,0.01 -0.95,0.03 l 0,-0.31 c 0.7,0 0.71,-0.01 1.18,-0.61 l 0.99,-1.28 -0.94,-1.18 c -0.48,-0.58 -1.07,-0.6 -1.28,-0.6 l 0,-0.31 c 0.26,0.03 0.57,0.04 0.83,0.04 0.29,0 0.71,-0.03 0.95,-0.04 l 0,0.31 c -0.22,0.03 -0.29,0.16 -0.29,0.31 0,0.22 0.29,0.55 0.9,1.26 l 0.75,-0.99 c 0.08,-0.11 0.21,-0.27 0.21,-0.33 0,-0.09 -0.09,-0.24 -0.36,-0.25 l 0,-0.31 c 0.3,0.01 0.86,0.04 1.08,0.04 0.27,0 0.66,-0.01 0.96,-0.04 l 0,0.31 c -0.54,0 -0.72,0.02 -0.95,0.31 z"
         inkscape:connector-curvature="0"
         style="fill:#000000;stroke-width:0" /><path
         id="path8776"
         d="m 266.25,659.31 0.39,4.53 c 0,0.33 -0.27,0.51 -0.53,0.51 -0.26,0 -0.53,-0.18 -0.53,-0.51 l 0.39,-4.52 c 0.01,-0.15 0.02,-0.23 0.14,-0.23 0.1,0 0.13,0.05 0.14,0.22 z"
         inkscape:connector-curvature="0"
         style="fill:#000000;stroke-width:0" /><path
         id="path8778"
         d="m 266.64,657.76 -0.01,0.03 0,0.03 0,0.02 -0.01,0.03 0,0.02 -0.01,0.03 -0.01,0.02 -0.01,0.03 -0.01,0.02 -0.01,0.02 -0.01,0.02 -0.02,0.03 -0.01,0.02 -0.02,0.02 -0.01,0.01 -0.02,0.02 -0.02,0.02 -0.02,0.02 -0.02,0.01 -0.02,0.02 -0.02,0.01 -0.02,0.01 -0.03,0.02 -0.02,0.01 -0.02,0.01 -0.03,0 -0.02,0.01 -0.03,0.01 -0.02,0 -0.03,0.01 -0.03,0 -0.02,0 c -0.29,0 -0.53,-0.24 -0.53,-0.53 0,-0.29 0.24,-0.53 0.53,-0.53 0.29,0 0.53,0.24 0.53,0.53 z"
         inkscape:connector-curvature="0"
         style="fill:#000000;stroke-width:0" /></g>  </g>
</svg>
