<?xml version="1.0" encoding="UTF-8" standalone="no"?>
<!-- Created with Inkscape (http://www.inkscape.org/) -->

<svg
   xmlns:ns0="http://www.iki.fi/pav/software/textext/"
   xmlns:dc="http://purl.org/dc/elements/1.1/"
   xmlns:cc="http://creativecommons.org/ns#"
   xmlns:rdf="http://www.w3.org/1999/02/22-rdf-syntax-ns#"
   xmlns:svg="http://www.w3.org/2000/svg"
   xmlns="http://www.w3.org/2000/svg"
   xmlns:sodipodi="http://sodipodi.sourceforge.net/DTD/sodipodi-0.dtd"
   xmlns:inkscape="http://www.inkscape.org/namespaces/inkscape"
   width="245mm"
   height="90mm"
   viewBox="0 0 868.11022 318.89764"
   id="svg8834"
   version="1.1"
   inkscape:version="0.91 r13725"
   sodipodi:docname="simplicialcomplex.svg"
   inkscape:export-filename="/home/robin/repositories/rpackage_tutorials/simplicialcomplex.png"
   inkscape:export-xdpi="90"
   inkscape:export-ydpi="90">
  <sodipodi:namedview
     id="base"
     pagecolor="#ffffff"
     bordercolor="#666666"
     borderopacity="1.0"
     inkscape:pageopacity="0.0"
     inkscape:pageshadow="2"
     inkscape:zoom="0.52933621"
     inkscape:cx="408.45778"
     inkscape:cy="30.223307"
     inkscape:document-units="px"
     inkscape:current-layer="layer1"
     showgrid="false"
     inkscape:window-width="2560"
     inkscape:window-height="1311"
     inkscape:window-x="0"
     inkscape:window-y="55"
     inkscape:window-maximized="1" />
  <defs
     id="defs8836" />
  <metadata
     id="metadata8839">
    <rdf:RDF>
      <cc:Work
         rdf:about="">
        <dc:format>image/svg+xml</dc:format>
        <dc:type
           rdf:resource="http://purl.org/dc/dcmitype/StillImage" />
        <dc:title></dc:title>
      </cc:Work>
    </rdf:RDF>
  </metadata>
  <g
     inkscape:label="Layer 1"
     inkscape:groupmode="layer"
     id="layer1"
     transform="translate(0,-733.46457)">
    <path
       style="fill:#000000;fill-opacity:0.10196078;fill-rule:evenodd;stroke:#000000;stroke-width:1px;stroke-linecap:butt;stroke-linejoin:miter;stroke-opacity:1"
       d="M 438.25943,909.58005 306.5701,986.31632 307.56024,833.33883 Z"
       id="path8143"
       inkscape:connector-curvature="0"
       inkscape:export-xdpi="90"
       inkscape:export-ydpi="90" />
    <circle
       style="opacity:1;fill:#2b0000;fill-opacity:1;stroke:none;stroke-width:1;stroke-miterlimit:4;stroke-dasharray:3, 3;stroke-dashoffset:0;stroke-opacity:0.5372549"
       id="path8070-1"
       cx="910.07513"
       cy="-437.76434"
       r="6.4359469"
       inkscape:export-xdpi="90"
       inkscape:export-ydpi="90"
       transform="matrix(0,1,-1,0,0,0)" />
    <circle
       style="opacity:1;fill:#2b0000;fill-opacity:1;stroke:none;stroke-width:1;stroke-miterlimit:4;stroke-dasharray:3, 3;stroke-dashoffset:0;stroke-opacity:0.5372549"
       id="path8070-8"
       cx="985.82135"
       cy="-307.06512"
       r="6.4359469"
       inkscape:export-xdpi="90"
       inkscape:export-ydpi="90"
       transform="matrix(0,1,-1,0,0,0)" />
    <circle
       style="opacity:1;fill:#2b0000;fill-opacity:1;stroke:none;stroke-width:1;stroke-miterlimit:4;stroke-dasharray:3, 3;stroke-dashoffset:0;stroke-opacity:0.5372549"
       id="path8070-8-2"
       cx="833.55005"
       cy="-307.62665"
       r="6.4359469"
       inkscape:export-xdpi="90"
       inkscape:export-ydpi="90"
       transform="matrix(0,1,-1,0,0,0)" />
    <path
       style="fill:none;fill-rule:evenodd;stroke:#000000;stroke-width:1;stroke-linecap:butt;stroke-linejoin:miter;stroke-miterlimit:4;stroke-dasharray:none;stroke-opacity:1"
       d="m 182.89672,915.40475 126.5629,71.39777"
       id="path8093"
       inkscape:connector-curvature="0"
       inkscape:export-xdpi="90"
       inkscape:export-ydpi="90" />
    <circle
       style="opacity:1;fill:#2b0000;fill-opacity:1;stroke:none;stroke-width:1;stroke-miterlimit:4;stroke-dasharray:3, 3;stroke-dashoffset:0;stroke-opacity:0.5372549"
       id="path8070-1-0"
       cx="915.79706"
       cy="-182.0509"
       r="6.4359469"
       inkscape:export-xdpi="90"
       inkscape:export-ydpi="90"
       transform="matrix(0,1,-1,0,0,0)" />
    <circle
       style="opacity:1;fill:#2b0000;fill-opacity:1;stroke:none;stroke-width:1;stroke-miterlimit:4;stroke-dasharray:3, 3;stroke-dashoffset:0;stroke-opacity:0.5372549"
       id="path8070-8-6"
       cx="992.03827"
       cy="-86.006783"
       r="6.4359469"
       inkscape:export-xdpi="90"
       inkscape:export-ydpi="90"
       transform="matrix(0,1,-1,0,0,0)" />
    <circle
       style="opacity:1;fill:#2b0000;fill-opacity:1;stroke:none;stroke-width:1;stroke-miterlimit:4;stroke-dasharray:3, 3;stroke-dashoffset:0;stroke-opacity:0.5372549"
       id="path8070-46"
       cx="839.36975"
       cy="-87.492012"
       r="6.4359469"
       inkscape:export-xdpi="90"
       inkscape:export-ydpi="90"
       transform="matrix(0,1,-1,0,0,0)" />
    <path
       style="fill:#000000;fill-opacity:0.21469739;fill-rule:evenodd;stroke:#000000;stroke-width:0.87913203px;stroke-linecap:butt;stroke-linejoin:miter;stroke-opacity:1"
       d="M 180.56172,915.60535 7.7895681,919.08215"
       id="path8208"
       inkscape:connector-curvature="0"
       inkscape:export-xdpi="90"
       inkscape:export-ydpi="90" />
    <path
       style="fill:#000000;fill-opacity:0.21469739;fill-rule:evenodd;stroke:#000000;stroke-width:0.90740639px;stroke-linecap:butt;stroke-linejoin:miter;stroke-opacity:1"
       d="M 85.971469,839.8231 10.296268,919.6133"
       id="path8210"
       inkscape:connector-curvature="0"
       inkscape:export-xdpi="90"
       inkscape:export-ydpi="90" />
    <path
       style="fill:#000000;fill-opacity:0.21469739;fill-rule:evenodd;stroke:#000000;stroke-width:0.90223932px;stroke-linecap:butt;stroke-linejoin:miter;stroke-opacity:1"
       d="M 85.529869,991.87832 10.738068,919.54538"
       id="path8212"
       inkscape:connector-curvature="0"
       inkscape:export-xdpi="90"
       inkscape:export-ydpi="90" />
    <path
       style="fill:none;fill-opacity:0.21469739;fill-rule:evenodd;stroke:#000000;stroke-width:0.86185956px;stroke-linecap:butt;stroke-linejoin:miter;stroke-opacity:1"
       d="m 85.622169,839.29793 96.624151,76.3135 -97.726351,75.32249"
       id="path8214"
       inkscape:connector-curvature="0"
       inkscape:export-xdpi="90"
       inkscape:export-ydpi="90" />
    <path
       style="fill:#000000;fill-opacity:0.21469739;fill-rule:evenodd;stroke:#000000;stroke-width:1;stroke-linecap:butt;stroke-linejoin:miter;stroke-miterlimit:4;stroke-dasharray:4, 2;stroke-dashoffset:0;stroke-opacity:1"
       d="m 86.502069,836.89441 -1.4853,158.42331"
       id="path8216"
       inkscape:connector-curvature="0"
       inkscape:export-xdpi="90"
       inkscape:export-ydpi="90" />
    <circle
       style="opacity:1;fill:#2b0000;fill-opacity:1;stroke:none;stroke-width:1;stroke-miterlimit:4;stroke-dasharray:3, 3;stroke-dashoffset:0;stroke-opacity:0.5372549"
       id="path8070-2"
       cx="919.07648"
       cy="-11.745916"
       r="6.4359469"
       inkscape:export-xdpi="90"
       inkscape:export-ydpi="90"
       transform="matrix(0,1,-1,0,0,0)" />
    <path
       style="fill:#000000;fill-opacity:0.10230545;fill-rule:evenodd;stroke:none;stroke-width:1px;stroke-linecap:butt;stroke-linejoin:miter;stroke-opacity:1"
       d="M 182.18952,915.24117 86.970769,840.32637 9.6054681,919.79207 85.570469,992.25642 Z"
       id="path8235"
       inkscape:connector-curvature="0"
       inkscape:export-xdpi="90"
       inkscape:export-ydpi="90" />
    <path
       style="fill:none;fill-rule:evenodd;stroke:none;stroke-width:1.00000012;stroke-linecap:butt;stroke-linejoin:miter;stroke-miterlimit:4;stroke-dasharray:none;stroke-opacity:1"
       d="M 182.42602,915.30037 83.411469,991.04642 10.140768,918.76587 Z"
       id="path8830"
       inkscape:connector-curvature="0" />
    <path
       style="fill:none;fill-rule:evenodd;stroke:#000000;stroke-width:1px;stroke-linecap:butt;stroke-linejoin:miter;stroke-opacity:1"
       d="M 306.95875,833.55002 182.05802,916.03795"
       id="path13410"
       inkscape:connector-curvature="0" />
    <path
       style="fill:none;fill-rule:evenodd;stroke:#000000;stroke-width:0.78627485px;stroke-linecap:butt;stroke-linejoin:miter;stroke-opacity:1"
       d="M 86.126839,839.95692 158.46132,746.55247"
       id="path13412"
       inkscape:connector-curvature="0" />
    <circle
       style="opacity:1;fill:#2b0000;fill-opacity:1;stroke:none;stroke-width:1;stroke-miterlimit:4;stroke-dasharray:3, 3;stroke-dashoffset:0;stroke-opacity:0.5372549"
       id="path8070-2-2"
       cx="745.50763"
       cy="-158.59572"
       r="6.4359469"
       inkscape:export-xdpi="90"
       inkscape:export-ydpi="90"
       transform="matrix(0,1,-1,0,0,0)" />
    <circle
       style="opacity:1;fill:#2b0000;fill-opacity:1;stroke:none;stroke-width:1;stroke-miterlimit:4;stroke-dasharray:3, 3;stroke-dashoffset:0;stroke-opacity:0.5372549"
       id="path8070-2-2-2"
       cx="832.27527"
       cy="-178.52548"
       r="6.4359469"
       inkscape:export-xdpi="90"
       inkscape:export-ydpi="90"
       transform="matrix(0,1,-1,0,0,0)" />
    <path
       style="fill:#000000;fill-opacity:0.10196078;fill-rule:evenodd;stroke:#000000;stroke-width:1px;stroke-linecap:butt;stroke-linejoin:miter;stroke-opacity:1"
       d="M 825.28641,911.51423 693.59708,988.2505 694.58722,835.27301 Z"
       id="path8143-7"
       inkscape:connector-curvature="0"
       inkscape:export-xdpi="90"
       inkscape:export-ydpi="90" />
    <circle
       style="opacity:1;fill:#2b0000;fill-opacity:1;stroke:none;stroke-width:1;stroke-miterlimit:4;stroke-dasharray:3, 3;stroke-dashoffset:0;stroke-opacity:0.5372549"
       id="path8070-1-03"
       cx="912.00934"
       cy="-824.79132"
       r="6.4359469"
       inkscape:export-xdpi="90"
       inkscape:export-ydpi="90"
       transform="matrix(0,1,-1,0,0,0)" />
    <circle
       style="opacity:1;fill:#2b0000;fill-opacity:1;stroke:none;stroke-width:1;stroke-miterlimit:4;stroke-dasharray:3, 3;stroke-dashoffset:0;stroke-opacity:0.5372549"
       id="path8070-8-4"
       cx="987.75555"
       cy="-694.0921"
       r="6.4359469"
       inkscape:export-xdpi="90"
       inkscape:export-ydpi="90"
       transform="matrix(0,1,-1,0,0,0)" />
    <circle
       style="opacity:1;fill:#2b0000;fill-opacity:1;stroke:none;stroke-width:1;stroke-miterlimit:4;stroke-dasharray:3, 3;stroke-dashoffset:0;stroke-opacity:0.5372549"
       id="path8070-8-2-6"
       cx="835.48425"
       cy="-694.65363"
       r="6.4359469"
       inkscape:export-xdpi="90"
       inkscape:export-ydpi="90"
       transform="matrix(0,1,-1,0,0,0)" />
    <path
       style="fill:none;fill-rule:evenodd;stroke:#000000;stroke-width:1px;stroke-linecap:butt;stroke-linejoin:miter;stroke-opacity:1"
       d="m 693.32117,834.16441 0.94458,-67.06513 -145.4652,122.79531 142.63146,74.62176"
       id="path13468"
       inkscape:connector-curvature="0" />
    <circle
       style="opacity:1;fill:#2b0000;fill-opacity:1;stroke:none;stroke-width:1;stroke-miterlimit:4;stroke-dasharray:3, 3;stroke-dashoffset:0;stroke-opacity:0.5372549"
       id="path8070-2-2-2-3"
       cx="768.9884"
       cy="-694.26575"
       r="6.4359469"
       inkscape:export-xdpi="90"
       inkscape:export-ydpi="90"
       transform="matrix(0,1,-1,0,0,0)" />
    <circle
       style="opacity:1;fill:#2b0000;fill-opacity:1;stroke:none;stroke-width:1;stroke-miterlimit:4;stroke-dasharray:3, 3;stroke-dashoffset:0;stroke-opacity:0.5372549"
       id="path8070-2-2-2-6"
       cx="888.95001"
       cy="-549.74512"
       r="6.4359469"
       inkscape:export-xdpi="90"
       inkscape:export-ydpi="90"
       transform="matrix(0,1,-1,0,0,0)" />
    <circle
       style="opacity:1;fill:#2b0000;fill-opacity:1;stroke:none;stroke-width:1;stroke-miterlimit:4;stroke-dasharray:3, 3;stroke-dashoffset:0;stroke-opacity:0.5372549"
       id="path8070-2-2-2-33"
       cx="964.5163"
       cy="-693.32117"
       r="6.4359469"
       inkscape:export-xdpi="90"
       inkscape:export-ydpi="90"
       transform="matrix(0,1,-1,0,0,0)" />
    <g
       style="font-style:normal;font-variant:normal;font-weight:normal;font-stretch:normal;letter-spacing:normal;word-spacing:normal;text-anchor:start;fill:none;fill-opacity:1;fill-rule:evenodd;stroke:#000000;stroke-linecap:butt;stroke-linejoin:miter;stroke-miterlimit:10.43299961;stroke-dasharray:none;stroke-dashoffset:0;stroke-opacity:1"
       id="content"
       transform="matrix(3,0,0,-3,-567.88431,3011.3308)"
       xml:space="preserve"
       stroke-miterlimit="10.433"
       font-style="normal"
       font-variant="normal"
       font-weight="normal"
       font-stretch="normal"
       font-size-adjust="none"
       letter-spacing="normal"
       word-spacing="normal"
       ns0:text="simplicial complex\n"
       ns0:preamble=""><path
         style="fill:#000000;stroke-width:0"
         inkscape:connector-curvature="0"
         d="m 225.51,659.16 0.02,0 0.02,-0.01 0.03,0 0.03,-0.01 0.04,-0.01 0.03,-0.01 0.04,-0.01 0.04,-0.01 0.04,-0.01 0.04,-0.01 0.05,-0.02 0.04,-0.02 0.04,-0.01 0.05,-0.03 0.04,-0.02 0.05,-0.02 0.04,-0.03 0.04,-0.03 0.04,-0.03 0.04,-0.03 0.04,-0.03 0.04,-0.04 0.03,-0.04 0.03,-0.04 0.03,-0.05 0.01,-0.02 0.02,-0.03 0.01,-0.02 0.01,-0.03 0.01,-0.02 0.01,-0.03 0.01,-0.03 0,-0.02 0.01,-0.03 0,-0.03 0.01,-0.03 0,-0.04 0,-0.03 0,-0.03 c 0,-0.51 -0.35,-0.91 -1.12,-0.91 -0.84,0 -1.2,0.57 -1.39,1.42 -0.03,0.12 -0.04,0.16 -0.14,0.16 -0.13,0 -0.13,-0.07 -0.13,-0.25 l 0,-1.31 c 0,-0.16 0,-0.23 0.11,-0.23 0.05,0 0.06,0.01 0.25,0.19 0.02,0.02 0.02,0.04 0.2,0.23 0.44,-0.41 0.89,-0.42 1.1,-0.42 1.14,0 1.6,0.66 1.6,1.38 0,0.52 -0.3,0.82 -0.42,0.94 -0.33,0.32 -0.72,0.4 -1.13,0.48 -0.56,0.11 -1.23,0.23 -1.23,0.81 0,0.35 0.26,0.76 1.12,0.76 1.09,0 1.14,-0.9 1.16,-1.21 0.01,-0.08 0.1,-0.08 0.12,-0.08 0.13,0 0.13,0.05 0.13,0.23 l 0,1.01 c 0,0.17 0,0.23 -0.11,0.23 -0.05,0 -0.07,0 -0.2,-0.11 -0.03,-0.04 -0.13,-0.13 -0.17,-0.16 -0.38,0.27 -0.78,0.27 -0.93,0.27 -1.22,0 -1.6,-0.66 -1.6,-1.22 0,-0.34 0.16,-0.62 0.43,-0.84 0.32,-0.26 0.6,-0.32 1.32,-0.46 z"
         id="path13531" /><path
         style="fill:#000000;stroke-width:0"
         inkscape:connector-curvature="0"
         d="m 229.13,661.63 -1.4,-0.11 0,-0.31 c 0.65,0 0.74,-0.06 0.74,-0.55 l 0,-2.67 c 0,-0.45 -0.11,-0.45 -0.78,-0.45 l 0,-0.31 c 0.32,0.01 0.86,0.04 1.1,0.04 0.35,0 0.7,-0.03 1.03,-0.04 l 0,0.31 c -0.65,0 -0.69,0.05 -0.69,0.44 z"
         id="path13533" /><path
         style="fill:#000000;stroke-width:0"
         inkscape:connector-curvature="0"
         d="m 229.17,663.35 0,0.03 -0.01,0.03 0,0.03 -0.01,0.03 0,0.02 -0.01,0.03 -0.01,0.03 -0.01,0.02 -0.01,0.02 -0.01,0.03 -0.01,0.02 -0.02,0.02 -0.01,0.02 -0.02,0.02 -0.02,0.02 -0.01,0.02 -0.02,0.01 -0.02,0.02 -0.02,0.01 -0.02,0.02 -0.02,0.01 -0.03,0.01 -0.02,0.01 -0.02,0.01 -0.03,0.01 -0.02,0.01 -0.02,0.01 -0.03,0 -0.02,0.01 -0.03,0 -0.03,0 -0.02,0 c -0.31,0 -0.53,-0.27 -0.53,-0.53 0,-0.26 0.22,-0.52 0.53,-0.52 0.28,0 0.53,0.21 0.53,0.52 z"
         id="path13535" /><path
         style="fill:#000000;stroke-width:0"
         inkscape:connector-curvature="0"
         d="m 231.23,660.65 0,-2.66 c 0,-0.45 -0.11,-0.45 -0.78,-0.45 l 0,-0.31 c 0.35,0.01 0.86,0.04 1.12,0.04 0.26,0 0.78,-0.03 1.12,-0.04 l 0,0.31 c -0.67,0 -0.78,0 -0.78,0.45 l 0,1.83 c 0,1.03 0.71,1.59 1.35,1.59 0.63,0 0.74,-0.54 0.74,-1.11 l 0,-2.31 c 0,-0.45 -0.11,-0.45 -0.78,-0.45 l 0,-0.31 c 0.35,0.01 0.86,0.04 1.13,0.04 0.26,0 0.77,-0.03 1.11,-0.04 l 0,0.31 c -0.66,0 -0.77,0 -0.77,0.45 l 0,1.83 c 0,1.03 0.7,1.59 1.34,1.59 0.63,0 0.74,-0.54 0.74,-1.11 l 0,-2.31 c 0,-0.45 -0.11,-0.45 -0.78,-0.45 l 0,-0.31 c 0.35,0.01 0.86,0.04 1.13,0.04 0.26,0 0.78,-0.03 1.12,-0.04 l 0,0.31 c -0.52,0 -0.77,0 -0.78,0.3 l 0,1.9 c 0,0.85 0,1.16 -0.31,1.52 -0.14,0.17 -0.47,0.37 -1.05,0.37 -0.84,0 -1.27,-0.6 -1.44,-0.98 -0.14,0.87 -0.88,0.98 -1.33,0.98 -0.73,0 -1.2,-0.43 -1.48,-1.05 l 0,1.05 -1.4,-0.11 0,-0.31 c 0.7,0 0.78,-0.07 0.78,-0.56 z"
         id="path13537" /><path
         style="fill:#000000;stroke-width:0"
         inkscape:connector-curvature="0"
         d="m 240.15,660.97 0,0.66 -1.44,-0.11 0,-0.31 c 0.71,0 0.78,-0.06 0.78,-0.5 l 0,-4.65 c 0,-0.44 -0.11,-0.44 -0.78,-0.44 l 0,-0.31 c 0.34,0.01 0.86,0.03 1.12,0.03 0.27,0 0.77,-0.02 1.12,-0.03 l 0,0.31 c -0.66,0 -0.77,0 -0.77,0.44 l 0,1.67 0,0.09 0.14,0.13 c -0.14,0.21 -0.14,0.22 -0.14,0.42 l 0,0 0,2.21 c 0.28,0.51 0.77,0.8 1.28,0.8 0.73,0 1.34,-0.88 1.34,-2 0,-1.2 -0.7,-2.04 -1.44,-2.04 -0.4,0 -0.77,0.2 -1.04,0.61 l -0.14,-0.13 c 0.05,-0.16 0.46,-0.69 1.22,-0.69 1.19,0 2.23,0.97 2.23,2.25 0,1.26 -0.97,2.25 -2.09,2.25 -0.78,0 -1.19,-0.44 -1.39,-0.66 z"
         id="path13539" /><path
         style="fill:#000000;stroke-width:0"
         inkscape:connector-curvature="0"
         d="m 245.73,664.13 -1.44,-0.11 0,-0.31 c 0.7,0 0.78,-0.07 0.78,-0.55 l 0,-5.17 c 0,-0.45 -0.11,-0.45 -0.78,-0.45 l 0,-0.31 c 0.33,0.01 0.86,0.04 1.11,0.04 0.25,0 0.74,-0.03 1.11,-0.04 l 0,0.31 c -0.67,0 -0.78,0 -0.78,0.45 z"
         id="path13541" /><path
         style="fill:#000000;stroke-width:0"
         inkscape:connector-curvature="0"
         d="m 248.5,661.63 -1.4,-0.11 0,-0.31 c 0.65,0 0.74,-0.06 0.74,-0.55 l 0,-2.67 c 0,-0.45 -0.11,-0.45 -0.78,-0.45 l 0,-0.31 c 0.32,0.01 0.86,0.04 1.1,0.04 0.35,0 0.7,-0.03 1.04,-0.04 l 0,0.31 c -0.66,0 -0.7,0.05 -0.7,0.44 z"
         id="path13543" /><path
         style="fill:#000000;stroke-width:0"
         inkscape:connector-curvature="0"
         d="m 248.54,663.35 0,0.03 0,0.03 -0.01,0.03 0,0.03 -0.01,0.02 -0.01,0.03 -0.01,0.03 -0.01,0.02 -0.01,0.02 -0.01,0.03 -0.01,0.02 -0.02,0.02 -0.01,0.02 -0.02,0.02 -0.01,0.02 -0.02,0.02 -0.02,0.01 -0.02,0.02 -0.02,0.01 -0.02,0.02 -0.02,0.01 -0.02,0.01 -0.03,0.01 -0.02,0.01 -0.02,0.01 -0.03,0.01 -0.02,0.01 -0.03,0 -0.02,0.01 -0.03,0 -0.02,0 -0.03,0 c -0.31,0 -0.53,-0.27 -0.53,-0.53 0,-0.26 0.22,-0.52 0.53,-0.52 0.28,0 0.53,0.21 0.53,0.52 z"
         id="path13545" /><path
         style="fill:#000000;stroke-width:0"
         inkscape:connector-curvature="0"
         d="m 250.67,659.4 0,0.08 0,0.07 0,0.07 0.01,0.07 0,0.07 0.01,0.07 0.01,0.06 0,0.06 0.01,0.06 0.01,0.06 0.01,0.06 0.02,0.06 0.02,0.11 0.03,0.1 0.04,0.1 0.03,0.09 0.04,0.09 0.04,0.08 0.05,0.07 0.04,0.07 0.05,0.07 0.05,0.06 0.05,0.05 0.06,0.05 0.05,0.05 0.06,0.04 0.05,0.04 0.06,0.03 0.05,0.03 0.06,0.03 0.06,0.02 0.05,0.02 0.06,0.01 0.05,0.02 0.06,0.01 0.05,0 0.05,0.01 0.05,0 c 0.09,0 0.72,-0.01 1.07,-0.37 -0.41,-0.03 -0.47,-0.33 -0.47,-0.46 0,-0.26 0.18,-0.45 0.46,-0.45 0.26,0 0.46,0.16 0.46,0.46 0,0.68 -0.76,1.06 -1.53,1.06 -1.24,0 -2.16,-1.07 -2.16,-2.3 0,-1.27 0.99,-2.25 2.14,-2.25 1.34,0 1.66,1.19 1.66,1.29 0,0.1 -0.1,0.1 -0.13,0.1 -0.09,0 -0.11,-0.04 -0.13,-0.1 -0.29,-0.93 -0.94,-1.05 -1.31,-1.05 -0.53,0 -1.4,0.43 -1.4,2.03 z"
         id="path13547" /><path
         style="fill:#000000;stroke-width:0"
         inkscape:connector-curvature="0"
         d="m 255.69,661.63 -1.39,-0.11 0,-0.31 c 0.65,0 0.74,-0.06 0.74,-0.55 l 0,-2.67 c 0,-0.45 -0.11,-0.45 -0.78,-0.45 l 0,-0.31 c 0.32,0.01 0.86,0.04 1.09,0.04 0.35,0 0.7,-0.03 1.04,-0.04 l 0,0.31 c -0.66,0 -0.7,0.05 -0.7,0.44 z"
         id="path13549" /><path
         style="fill:#000000;stroke-width:0"
         inkscape:connector-curvature="0"
         d="m 255.73,663.35 0,0.03 0,0.03 0,0.03 -0.01,0.03 0,0.02 -0.01,0.03 -0.01,0.03 -0.01,0.02 -0.01,0.02 -0.01,0.03 -0.02,0.02 -0.01,0.02 -0.02,0.02 -0.01,0.02 -0.02,0.02 -0.02,0.02 -0.01,0.01 -0.02,0.02 -0.02,0.01 -0.03,0.02 -0.02,0.01 -0.02,0.01 -0.02,0.01 -0.02,0.01 -0.03,0.01 -0.02,0.01 -0.03,0.01 -0.02,0 -0.03,0.01 -0.02,0 -0.03,0 -0.02,0 c -0.31,0 -0.53,-0.27 -0.53,-0.53 0,-0.26 0.22,-0.52 0.53,-0.52 0.27,0 0.52,0.21 0.52,0.52 z"
         id="path13551" /><path
         style="fill:#000000;stroke-width:0"
         inkscape:connector-curvature="0"
         d="m 260.02,657.99 0,-0.04 0.01,-0.03 0,-0.04 0.01,-0.04 0.01,-0.04 0.01,-0.03 0.02,-0.04 0.01,-0.03 0.01,-0.04 0.02,-0.03 0.02,-0.04 0.02,-0.03 0.02,-0.03 0.02,-0.04 0.02,-0.03 0.03,-0.03 0.02,-0.02 0.03,-0.03 0.02,-0.03 0.03,-0.02 0.03,-0.02 0.03,-0.03 0.04,-0.02 0.03,-0.01 0.04,-0.02 0.03,-0.01 0.04,-0.02 0.04,-0.01 0.04,0 0.04,-0.01 0.04,0 0.05,-0.01 c 0.2,0 0.81,0.14 0.81,0.95 l 0,0.55 -0.25,0 0,-0.55 c 0,-0.58 -0.25,-0.64 -0.36,-0.64 -0.33,0 -0.36,0.45 -0.36,0.5 l 0,1.99 c 0,0.41 0,0.8 -0.36,1.17 -0.39,0.39 -0.89,0.54 -1.37,0.54 -0.82,0 -1.51,-0.46 -1.51,-1.12 0,-0.29 0.2,-0.46 0.46,-0.46 0.28,0 0.46,0.19 0.46,0.45 0,0.12 -0.05,0.45 -0.51,0.46 0.27,0.35 0.76,0.46 1.08,0.46 0.49,0 1.06,-0.39 1.06,-1.27 l 0,-0.37 0,-0.21 0,-0.99 c 0,-0.95 -0.72,-1.29 -1.17,-1.29 -0.49,0 -0.9,0.35 -0.9,0.85 0,0.54 0.42,1.37 2.07,1.43 l 0,0 0,0.21 c -0.51,-0.03 -1.21,-0.06 -1.84,-0.36 -0.75,-0.34 -1,-0.85 -1,-1.29 0,-0.81 0.97,-1.05 1.6,-1.05 0.66,0 1.12,0.39 1.31,0.86 z"
         id="path13553" /><path
         style="fill:#000000;stroke-width:0"
         inkscape:connector-curvature="0"
         d="m 263.44,664.13 -1.43,-0.11 0,-0.31 c 0.69,0 0.77,-0.07 0.77,-0.55 l 0,-5.17 c 0,-0.45 -0.11,-0.45 -0.77,-0.45 l 0,-0.31 c 0.32,0.01 0.85,0.04 1.1,0.04 0.25,0 0.74,-0.03 1.11,-0.04 l 0,0.31 c -0.67,0 -0.78,0 -0.78,0.45 z"
         id="path13555" /><path
         style="fill:#000000;stroke-width:0"
         inkscape:connector-curvature="0"
         d="m 268.93,659.4 0,0.08 0,0.07 0,0.07 0.01,0.07 0,0.07 0.01,0.07 0.01,0.06 0.01,0.06 0,0.06 0.01,0.06 0.02,0.06 0.01,0.06 0.02,0.11 0.04,0.1 0.03,0.1 0.03,0.09 0.04,0.09 0.05,0.08 0.04,0.07 0.05,0.07 0.04,0.07 0.05,0.06 0.06,0.05 0.05,0.05 0.05,0.05 0.06,0.04 0.05,0.04 0.06,0.03 0.06,0.03 0.05,0.03 0.06,0.02 0.05,0.02 0.06,0.01 0.06,0.02 0.05,0.01 0.05,0 0.05,0.01 0.05,0 c 0.09,0 0.72,-0.01 1.07,-0.37 -0.41,-0.03 -0.47,-0.33 -0.47,-0.46 0,-0.26 0.18,-0.45 0.46,-0.45 0.26,0 0.46,0.16 0.46,0.46 0,0.68 -0.76,1.06 -1.52,1.06 -1.25,0 -2.17,-1.07 -2.17,-2.3 0,-1.27 0.99,-2.25 2.15,-2.25 1.33,0 1.65,1.19 1.65,1.29 0,0.1 -0.1,0.1 -0.13,0.1 -0.09,0 -0.11,-0.04 -0.13,-0.1 -0.29,-0.93 -0.94,-1.05 -1.31,-1.05 -0.52,0 -1.4,0.43 -1.4,2.03 z"
         id="path13557" /><path
         style="fill:#000000;stroke-width:0"
         inkscape:connector-curvature="0"
         d="m 276.89,659.36 -0.01,0.12 0,0.12 -0.02,0.11 -0.02,0.12 -0.02,0.11 -0.03,0.11 -0.04,0.11 -0.04,0.1 -0.04,0.1 -0.05,0.1 -0.05,0.1 -0.06,0.09 -0.06,0.1 -0.07,0.08 -0.07,0.09 -0.07,0.08 -0.08,0.08 -0.08,0.07 -0.08,0.07 -0.09,0.06 -0.09,0.07 -0.09,0.05 -0.1,0.05 -0.09,0.05 -0.1,0.04 -0.11,0.04 -0.1,0.03 -0.11,0.03 -0.1,0.02 -0.11,0.01 -0.11,0.01 -0.12,0 -0.01,-0.21 c 0.44,0 0.87,-0.22 1.13,-0.65 0.26,-0.43 0.26,-1 0.26,-1.38 0,-0.36 0,-0.89 -0.22,-1.33 -0.22,-0.45 -0.66,-0.74 -1.16,-0.74 l 0,0 c -0.43,0 -0.86,0.21 -1.13,0.67 -0.25,0.44 -0.25,1.04 -0.25,1.4 0,0.39 0,0.92 0.24,1.36 0.26,0.46 0.73,0.67 1.13,0.67 l 0.01,0.21 c -1.24,0 -2.21,-1.08 -2.21,-2.32 0,-1.28 1.04,-2.23 2.2,-2.23 1.21,0 2.22,0.97 2.22,2.23 z"
         id="path13559" /><path
         style="fill:#000000;stroke-width:0"
         inkscape:connector-curvature="0"
         d="m 278.27,660.65 0,-2.66 c 0,-0.45 -0.11,-0.45 -0.78,-0.45 l 0,-0.31 c 0.35,0.01 0.86,0.04 1.13,0.04 0.26,0 0.77,-0.03 1.11,-0.04 l 0,0.31 c -0.66,0 -0.77,0 -0.77,0.45 l 0,1.83 c 0,1.03 0.7,1.59 1.34,1.59 0.63,0 0.74,-0.54 0.74,-1.11 l 0,-2.31 c 0,-0.45 -0.11,-0.45 -0.78,-0.45 l 0,-0.31 c 0.35,0.01 0.86,0.04 1.13,0.04 0.26,0 0.78,-0.03 1.12,-0.04 l 0,0.31 c -0.67,0 -0.78,0 -0.78,0.45 l 0,1.83 c 0,1.03 0.71,1.59 1.35,1.59 0.62,0 0.73,-0.54 0.73,-1.11 l 0,-2.31 c 0,-0.45 -0.11,-0.45 -0.77,-0.45 l 0,-0.31 c 0.34,0.01 0.85,0.04 1.12,0.04 0.26,0 0.78,-0.03 1.12,-0.04 l 0,0.31 c -0.52,0 -0.77,0 -0.78,0.3 l 0,1.9 c 0,0.85 0,1.16 -0.31,1.52 -0.14,0.17 -0.47,0.37 -1.05,0.37 -0.83,0 -1.27,-0.6 -1.44,-0.98 -0.14,0.87 -0.88,0.98 -1.33,0.98 -0.73,0 -1.2,-0.43 -1.47,-1.05 l 0,1.05 -1.41,-0.11 0,-0.31 c 0.7,0 0.78,-0.07 0.78,-0.56 z"
         id="path13561" /><path
         style="fill:#000000;stroke-width:0"
         inkscape:connector-curvature="0"
         d="m 287.19,660.97 0,0.66 -1.44,-0.11 0,-0.31 c 0.71,0 0.78,-0.06 0.78,-0.5 l 0,-4.65 c 0,-0.44 -0.11,-0.44 -0.78,-0.44 l 0,-0.31 c 0.34,0.01 0.86,0.03 1.12,0.03 0.27,0 0.78,-0.02 1.13,-0.03 l 0,0.31 c -0.67,0 -0.78,0 -0.78,0.44 l 0,1.67 0,0.09 0.14,0.13 c -0.14,0.21 -0.14,0.22 -0.14,0.42 l 0,0 0,2.21 c 0.29,0.51 0.78,0.8 1.28,0.8 0.73,0 1.34,-0.88 1.34,-2 0,-1.2 -0.7,-2.04 -1.44,-2.04 -0.39,0 -0.77,0.2 -1.04,0.61 l -0.14,-0.13 c 0.05,-0.16 0.47,-0.69 1.23,-0.69 1.18,0 2.22,0.97 2.22,2.25 0,1.26 -0.97,2.25 -2.09,2.25 -0.77,0 -1.19,-0.44 -1.39,-0.66 z"
         id="path13563" /><path
         style="fill:#000000;stroke-width:0"
         inkscape:connector-curvature="0"
         d="m 292.77,664.13 -1.43,-0.11 0,-0.31 c 0.7,0 0.77,-0.07 0.77,-0.55 l 0,-5.17 c 0,-0.45 -0.1,-0.45 -0.77,-0.45 l 0,-0.31 c 0.33,0.01 0.86,0.04 1.1,0.04 0.25,0 0.74,-0.03 1.11,-0.04 l 0,0.31 c -0.67,0 -0.78,0 -0.78,0.45 z"
         id="path13565" /><path
         style="fill:#000000;stroke-width:0"
         inkscape:connector-curvature="0"
         d="m 294.88,659.53 0.01,0.21 c 0.06,1.48 0.9,1.73 1.24,1.73 1.03,0 1.13,-1.34 1.13,-1.73 l -2.37,0 -0.01,-0.21 2.79,0 c 0.21,0 0.24,0 0.24,0.21 0,0.98 -0.53,1.94 -1.78,1.94 -1.16,0 -2.08,-1.02 -2.08,-2.26 0,-1.33 1.05,-2.29 2.2,-2.29 1.21,0 1.66,1.1 1.66,1.29 0,0.1 -0.08,0.12 -0.13,0.12 -0.08,0 -0.11,-0.06 -0.13,-0.14 -0.34,-1.03 -1.24,-1.03 -1.34,-1.03 -0.5,0 -0.9,0.3 -1.13,0.67 -0.3,0.48 -0.3,1.13 -0.3,1.49 z"
         id="path13567" /><path
         style="fill:#000000;stroke-width:0"
         inkscape:connector-curvature="0"
         d="m 301.07,659.57 0.05,0.07 0.06,0.08 0.06,0.07 0.06,0.08 0.12,0.15 0.07,0.08 0.06,0.08 0.06,0.07 0.06,0.07 0.05,0.07 0.06,0.07 0.03,0.03 0.02,0.03 0.03,0.04 0.03,0.03 0.02,0.02 0.03,0.03 0.02,0.03 0.02,0.02 c 0.31,0.36 0.72,0.51 1.19,0.52 l 0,0.31 c -0.26,-0.02 -0.56,-0.03 -0.82,-0.03 -0.3,0 -0.83,0.02 -0.96,0.03 l 0,-0.31 c 0.21,-0.02 0.29,-0.15 0.29,-0.31 0,-0.16 -0.1,-0.29 -0.15,-0.35 l -0.61,-0.77 -0.78,1 c -0.09,0.1 -0.09,0.12 -0.09,0.18 0,0.15 0.15,0.24 0.35,0.25 l 0,0.31 c -0.26,-0.01 -0.92,-0.03 -1.08,-0.03 -0.21,0 -0.68,0.01 -0.95,0.03 l 0,-0.31 c 0.7,0 0.71,-0.01 1.18,-0.61 l 0.99,-1.28 -0.94,-1.18 c -0.48,-0.58 -1.07,-0.6 -1.28,-0.6 l 0,-0.31 c 0.26,0.03 0.57,0.04 0.83,0.04 0.29,0 0.71,-0.03 0.95,-0.04 l 0,0.31 c -0.22,0.03 -0.29,0.16 -0.29,0.31 0,0.22 0.29,0.55 0.9,1.26 l 0.75,-0.99 c 0.08,-0.11 0.21,-0.27 0.21,-0.33 0,-0.09 -0.09,-0.24 -0.36,-0.25 l 0,-0.31 c 0.3,0.01 0.86,0.04 1.08,0.04 0.27,0 0.66,-0.01 0.96,-0.04 l 0,0.31 c -0.54,0 -0.72,0.02 -0.95,0.31 z"
         id="path13569" /></g>    <g
       style="font-style:normal;font-variant:normal;font-weight:normal;font-stretch:normal;letter-spacing:normal;word-spacing:normal;text-anchor:start;fill:none;fill-opacity:1;fill-rule:evenodd;stroke:#000000;stroke-linecap:butt;stroke-linejoin:miter;stroke-miterlimit:10.43299961;stroke-dasharray:none;stroke-dashoffset:0;stroke-opacity:1"
       ns0:preamble=""
       ns0:text="not a simplicial complex\n"
       word-spacing="normal"
       letter-spacing="normal"
       font-size-adjust="none"
       font-stretch="normal"
       font-weight="normal"
       font-variant="normal"
       font-style="normal"
       stroke-miterlimit="10.433"
       xml:space="preserve"
       transform="matrix(3,0,0,-3,-150.24027,3010.7414)"
       id="g13771"><path
         id="path13773"
         d="m 224.53,660.65 0,-2.66 c 0,-0.45 -0.11,-0.45 -0.78,-0.45 l 0,-0.31 c 0.35,0.01 0.86,0.04 1.13,0.04 0.26,0 0.78,-0.03 1.11,-0.04 l 0,0.31 c -0.66,0 -0.77,0 -0.77,0.45 l 0,1.83 c 0,1.03 0.71,1.59 1.34,1.59 0.63,0 0.74,-0.54 0.74,-1.11 l 0,-2.31 c 0,-0.45 -0.11,-0.45 -0.78,-0.45 l 0,-0.31 c 0.35,0.01 0.86,0.04 1.13,0.04 0.26,0 0.78,-0.03 1.12,-0.04 l 0,0.31 c -0.52,0 -0.77,0 -0.78,0.3 l 0,1.9 c 0,0.85 0,1.16 -0.31,1.52 -0.14,0.17 -0.47,0.37 -1.05,0.37 -0.73,0 -1.19,-0.43 -1.47,-1.05 l 0,1.05 -1.41,-0.11 0,-0.31 c 0.7,0 0.78,-0.07 0.78,-0.56 z"
         inkscape:connector-curvature="0"
         style="fill:#000000;stroke-width:0" /><path
         id="path13775"
         d="m 233.66,659.36 0,0.12 -0.01,0.12 -0.01,0.11 -0.02,0.12 -0.03,0.11 -0.03,0.11 -0.03,0.11 -0.04,0.1 -0.05,0.1 -0.04,0.1 -0.06,0.1 -0.06,0.09 -0.06,0.1 -0.06,0.08 -0.07,0.09 -0.08,0.08 -0.07,0.08 -0.08,0.07 -0.09,0.07 -0.08,0.06 -0.09,0.07 -0.09,0.05 -0.1,0.05 -0.1,0.05 -0.1,0.04 -0.1,0.04 -0.1,0.03 -0.11,0.03 -0.11,0.02 -0.11,0.01 -0.11,0.01 -0.11,0 -0.01,-0.21 c 0.44,0 0.87,-0.22 1.13,-0.65 0.26,-0.43 0.26,-1 0.26,-1.38 0,-0.36 0,-0.89 -0.22,-1.33 -0.22,-0.45 -0.66,-0.74 -1.16,-0.74 l 0,0 c -0.43,0 -0.87,0.21 -1.14,0.67 -0.25,0.44 -0.25,1.04 -0.25,1.4 0,0.39 0,0.92 0.24,1.36 0.27,0.46 0.74,0.67 1.14,0.67 l 0.01,0.21 c -1.25,0 -2.21,-1.08 -2.21,-2.32 0,-1.28 1.03,-2.23 2.2,-2.23 1.21,0 2.21,0.97 2.21,2.23 z"
         inkscape:connector-curvature="0"
         style="fill:#000000;stroke-width:0" /><path
         id="path13777"
         d="m 235.67,661.21 1.43,0 0,0.31 -1.43,0 0,1.82 -0.25,0 c -0.01,-0.81 -0.3,-1.87 -1.28,-1.91 l 0,-0.22 0.85,0 0,-2.74 c 0,-1.23 0.92,-1.34 1.28,-1.34 0.71,0 0.99,0.7 0.99,1.34 l 0,0.56 -0.25,0 0,-0.54 c 0,-0.74 -0.3,-1.12 -0.67,-1.12 -0.67,0 -0.67,0.91 -0.67,1.08 z"
         inkscape:connector-curvature="0"
         style="fill:#000000;stroke-width:0" /><path
         id="path13779"
         d="m 244.46,657.99 0.01,-0.04 0,-0.03 0.01,-0.04 0.01,-0.04 0.01,-0.04 0.01,-0.03 0.01,-0.04 0.01,-0.03 0.02,-0.04 0.01,-0.03 0.02,-0.04 0.02,-0.03 0.02,-0.03 0.02,-0.04 0.03,-0.03 0.02,-0.03 0.02,-0.02 0.03,-0.03 0.03,-0.03 0.03,-0.02 0.03,-0.02 0.03,-0.03 0.03,-0.02 0.04,-0.01 0.03,-0.02 0.04,-0.01 0.03,-0.02 0.04,-0.01 0.04,0 0.04,-0.01 0.05,0 0.04,-0.01 c 0.21,0 0.82,0.14 0.82,0.95 l 0,0.55 -0.25,0 0,-0.55 c 0,-0.58 -0.25,-0.64 -0.36,-0.64 -0.33,0 -0.37,0.45 -0.37,0.5 l 0,1.99 c 0,0.41 0,0.8 -0.36,1.17 -0.39,0.39 -0.89,0.54 -1.37,0.54 -0.81,0 -1.5,-0.46 -1.5,-1.12 0,-0.29 0.2,-0.46 0.46,-0.46 0.28,0 0.46,0.19 0.46,0.45 0,0.12 -0.05,0.45 -0.51,0.46 0.27,0.35 0.75,0.46 1.07,0.46 0.49,0 1.06,-0.39 1.06,-1.27 l 0,-0.37 0,-0.21 0,-0.99 c 0,-0.95 -0.72,-1.29 -1.16,-1.29 -0.49,0 -0.9,0.35 -0.9,0.85 0,0.54 0.42,1.37 2.06,1.43 l 0,0 0,0.21 c -0.51,-0.03 -1.21,-0.06 -1.83,-0.36 -0.75,-0.34 -1,-0.85 -1,-1.29 0,-0.81 0.97,-1.05 1.59,-1.05 0.66,0 1.12,0.39 1.31,0.86 z"
         inkscape:connector-curvature="0"
         style="fill:#000000;stroke-width:0" /><path
         id="path13781"
         d="m 251.52,659.16 0.03,0 0.02,-0.01 0.03,0 0.03,-0.01 0.04,-0.01 0.03,-0.01 0.04,-0.01 0.04,-0.01 0.04,-0.01 0.04,-0.01 0.04,-0.02 0.05,-0.02 0.04,-0.01 0.05,-0.03 0.04,-0.02 0.04,-0.02 0.05,-0.03 0.04,-0.03 0.04,-0.03 0.04,-0.03 0.04,-0.03 0.03,-0.04 0.04,-0.04 0.03,-0.04 0.03,-0.05 0.01,-0.02 0.01,-0.03 0.02,-0.02 0.01,-0.03 0.01,-0.02 0.01,-0.03 0,-0.03 0.01,-0.02 0.01,-0.03 0,-0.03 0.01,-0.03 0,-0.04 0,-0.03 0,-0.03 c 0,-0.51 -0.35,-0.91 -1.13,-0.91 -0.83,0 -1.19,0.57 -1.38,1.42 -0.03,0.12 -0.04,0.16 -0.14,0.16 -0.13,0 -0.13,-0.07 -0.13,-0.25 l 0,-1.31 c 0,-0.16 0,-0.23 0.11,-0.23 0.05,0 0.06,0.01 0.25,0.19 0.02,0.02 0.02,0.04 0.2,0.23 0.44,-0.41 0.88,-0.42 1.09,-0.42 1.15,0 1.61,0.66 1.61,1.38 0,0.52 -0.3,0.82 -0.42,0.94 -0.33,0.32 -0.72,0.4 -1.14,0.48 -0.55,0.11 -1.22,0.23 -1.22,0.81 0,0.35 0.26,0.76 1.11,0.76 1.1,0 1.15,-0.9 1.17,-1.21 0.01,-0.08 0.1,-0.08 0.12,-0.08 0.13,0 0.13,0.05 0.13,0.23 l 0,1.01 c 0,0.17 0,0.23 -0.11,0.23 -0.05,0 -0.07,0 -0.2,-0.11 -0.03,-0.04 -0.13,-0.13 -0.17,-0.16 -0.38,0.27 -0.79,0.27 -0.94,0.27 -1.21,0 -1.59,-0.66 -1.59,-1.22 0,-0.34 0.16,-0.62 0.43,-0.84 0.32,-0.26 0.6,-0.32 1.31,-0.46 z"
         inkscape:connector-curvature="0"
         style="fill:#000000;stroke-width:0" /><path
         id="path13783"
         d="m 255.14,661.63 -1.39,-0.11 0,-0.31 c 0.65,0 0.74,-0.06 0.74,-0.55 l 0,-2.67 c 0,-0.45 -0.11,-0.45 -0.78,-0.45 l 0,-0.31 c 0.32,0.01 0.86,0.04 1.09,0.04 0.35,0 0.7,-0.03 1.04,-0.04 l 0,0.31 c -0.66,0 -0.7,0.05 -0.7,0.44 z"
         inkscape:connector-curvature="0"
         style="fill:#000000;stroke-width:0" /><path
         id="path13785"
         d="m 255.18,663.35 0,0.03 0,0.03 0,0.03 -0.01,0.03 0,0.02 -0.01,0.03 -0.01,0.03 -0.01,0.02 -0.01,0.02 -0.01,0.03 -0.02,0.02 -0.01,0.02 -0.02,0.02 -0.01,0.02 -0.02,0.02 -0.02,0.02 -0.01,0.01 -0.02,0.02 -0.02,0.01 -0.03,0.02 -0.02,0.01 -0.02,0.01 -0.02,0.01 -0.02,0.01 -0.03,0.01 -0.02,0.01 -0.03,0.01 -0.02,0 -0.03,0.01 -0.02,0 -0.03,0 -0.03,0 c -0.3,0 -0.52,-0.27 -0.52,-0.53 0,-0.26 0.22,-0.52 0.52,-0.52 0.28,0 0.53,0.21 0.53,0.52 z"
         inkscape:connector-curvature="0"
         style="fill:#000000;stroke-width:0" /><path
         id="path13787"
         d="m 257.24,660.65 0,-2.66 c 0,-0.45 -0.11,-0.45 -0.78,-0.45 l 0,-0.31 c 0.35,0.01 0.86,0.04 1.13,0.04 0.26,0 0.78,-0.03 1.12,-0.04 l 0,0.31 c -0.67,0 -0.78,0 -0.78,0.45 l 0,1.83 c 0,1.03 0.71,1.59 1.35,1.59 0.63,0 0.74,-0.54 0.74,-1.11 l 0,-2.31 c 0,-0.45 -0.11,-0.45 -0.78,-0.45 l 0,-0.31 c 0.35,0.01 0.86,0.04 1.12,0.04 0.26,0 0.78,-0.03 1.12,-0.04 l 0,0.31 c -0.67,0 -0.78,0 -0.78,0.45 l 0,1.83 c 0,1.03 0.71,1.59 1.35,1.59 0.63,0 0.74,-0.54 0.74,-1.11 l 0,-2.31 c 0,-0.45 -0.11,-0.45 -0.78,-0.45 l 0,-0.31 c 0.35,0.01 0.86,0.04 1.13,0.04 0.26,0 0.77,-0.03 1.11,-0.04 l 0,0.31 c -0.52,0 -0.76,0 -0.77,0.3 l 0,1.9 c 0,0.85 0,1.16 -0.31,1.52 -0.14,0.17 -0.47,0.37 -1.05,0.37 -0.84,0 -1.28,-0.6 -1.45,-0.98 -0.14,0.87 -0.87,0.98 -1.32,0.98 -0.73,0 -1.2,-0.43 -1.48,-1.05 l 0,1.05 -1.41,-0.11 0,-0.31 c 0.7,0 0.78,-0.07 0.78,-0.56 z"
         inkscape:connector-curvature="0"
         style="fill:#000000;stroke-width:0" /><path
         id="path13789"
         d="m 266.16,660.97 0,0.66 -1.43,-0.11 0,-0.31 c 0.7,0 0.78,-0.06 0.78,-0.5 l 0,-4.65 c 0,-0.44 -0.12,-0.44 -0.78,-0.44 l 0,-0.31 c 0.34,0.01 0.85,0.03 1.11,0.03 0.27,0 0.78,-0.02 1.13,-0.03 l 0,0.31 c -0.67,0 -0.78,0 -0.78,0.44 l 0,1.67 0,0.09 0.14,0.13 c -0.14,0.21 -0.14,0.22 -0.14,0.42 l 0,0 0,2.21 c 0.29,0.51 0.78,0.8 1.29,0.8 0.73,0 1.34,-0.88 1.34,-2 0,-1.2 -0.7,-2.04 -1.44,-2.04 -0.4,0 -0.78,0.2 -1.05,0.61 l -0.14,-0.13 c 0.05,-0.16 0.47,-0.69 1.23,-0.69 1.19,0 2.22,0.97 2.22,2.25 0,1.26 -0.96,2.25 -2.08,2.25 -0.78,0 -1.2,-0.44 -1.4,-0.66 z"
         inkscape:connector-curvature="0"
         style="fill:#000000;stroke-width:0" /><path
         id="path13791"
         d="m 271.75,664.13 -1.44,-0.11 0,-0.31 c 0.7,0 0.78,-0.07 0.78,-0.55 l 0,-5.17 c 0,-0.45 -0.11,-0.45 -0.78,-0.45 l 0,-0.31 c 0.33,0.01 0.86,0.04 1.11,0.04 0.25,0 0.74,-0.03 1.11,-0.04 l 0,0.31 c -0.67,0 -0.78,0 -0.78,0.45 z"
         inkscape:connector-curvature="0"
         style="fill:#000000;stroke-width:0" /><path
         id="path13793"
         d="m 274.52,661.63 -1.4,-0.11 0,-0.31 c 0.65,0 0.74,-0.06 0.74,-0.55 l 0,-2.67 c 0,-0.45 -0.11,-0.45 -0.78,-0.45 l 0,-0.31 c 0.32,0.01 0.86,0.04 1.1,0.04 0.35,0 0.7,-0.03 1.03,-0.04 l 0,0.31 c -0.65,0 -0.69,0.05 -0.69,0.44 z"
         inkscape:connector-curvature="0"
         style="fill:#000000;stroke-width:0" /><path
         id="path13795"
         d="m 274.56,663.35 0,0.03 -0.01,0.03 0,0.03 -0.01,0.03 0,0.02 -0.01,0.03 -0.01,0.03 -0.01,0.02 -0.01,0.02 -0.01,0.03 -0.01,0.02 -0.02,0.02 -0.01,0.02 -0.02,0.02 -0.02,0.02 -0.01,0.02 -0.02,0.01 -0.02,0.02 -0.02,0.01 -0.02,0.02 -0.02,0.01 -0.03,0.01 -0.02,0.01 -0.02,0.01 -0.03,0.01 -0.02,0.01 -0.03,0.01 -0.02,0 -0.03,0.01 -0.02,0 -0.03,0 -0.02,0 c -0.31,0 -0.53,-0.27 -0.53,-0.53 0,-0.26 0.22,-0.52 0.53,-0.52 0.28,0 0.53,0.21 0.53,0.52 z"
         inkscape:connector-curvature="0"
         style="fill:#000000;stroke-width:0" /><path
         id="path13797"
         d="m 276.68,659.4 0.01,0.08 0,0.07 0,0.07 0,0.07 0.01,0.07 0.01,0.07 0,0.06 0.01,0.06 0.01,0.06 0.01,0.06 0.01,0.06 0.01,0.06 0.03,0.11 0.03,0.1 0.03,0.1 0.04,0.09 0.04,0.09 0.04,0.08 0.05,0.07 0.04,0.07 0.05,0.07 0.05,0.06 0.05,0.05 0.05,0.05 0.06,0.05 0.05,0.04 0.06,0.04 0.05,0.03 0.06,0.03 0.06,0.03 0.05,0.02 0.06,0.02 0.06,0.01 0.05,0.02 0.06,0.01 0.05,0 0.05,0.01 0.05,0 c 0.09,0 0.72,-0.01 1.07,-0.37 -0.41,-0.03 -0.47,-0.33 -0.47,-0.46 0,-0.26 0.18,-0.45 0.46,-0.45 0.26,0 0.46,0.16 0.46,0.46 0,0.68 -0.76,1.06 -1.53,1.06 -1.25,0 -2.16,-1.07 -2.16,-2.3 0,-1.27 0.99,-2.25 2.14,-2.25 1.34,0 1.66,1.19 1.66,1.29 0,0.1 -0.1,0.1 -0.13,0.1 -0.09,0 -0.11,-0.04 -0.13,-0.1 -0.29,-0.93 -0.94,-1.05 -1.31,-1.05 -0.53,0 -1.41,0.43 -1.41,2.03 z"
         inkscape:connector-curvature="0"
         style="fill:#000000;stroke-width:0" /><path
         id="path13799"
         d="m 281.71,661.63 -1.39,-0.11 0,-0.31 c 0.64,0 0.73,-0.06 0.73,-0.55 l 0,-2.67 c 0,-0.45 -0.11,-0.45 -0.78,-0.45 l 0,-0.31 c 0.32,0.01 0.86,0.04 1.1,0.04 0.35,0 0.7,-0.03 1.04,-0.04 l 0,0.31 c -0.66,0 -0.7,0.05 -0.7,0.44 z"
         inkscape:connector-curvature="0"
         style="fill:#000000;stroke-width:0" /><path
         id="path13801"
         d="m 281.75,663.35 0,0.03 0,0.03 -0.01,0.03 0,0.03 -0.01,0.02 0,0.03 -0.01,0.03 -0.01,0.02 -0.01,0.02 -0.02,0.03 -0.01,0.02 -0.01,0.02 -0.02,0.02 -0.01,0.02 -0.02,0.02 -0.02,0.02 -0.02,0.01 -0.02,0.02 -0.02,0.01 -0.02,0.02 -0.02,0.01 -0.02,0.01 -0.02,0.01 -0.03,0.01 -0.02,0.01 -0.03,0.01 -0.02,0.01 -0.03,0 -0.02,0.01 -0.03,0 -0.02,0 -0.03,0 c -0.31,0 -0.53,-0.27 -0.53,-0.53 0,-0.26 0.22,-0.52 0.53,-0.52 0.28,0 0.53,0.21 0.53,0.52 z"
         inkscape:connector-curvature="0"
         style="fill:#000000;stroke-width:0" /><path
         id="path13803"
         d="m 286.03,657.99 0.01,-0.04 0,-0.03 0.01,-0.04 0.01,-0.04 0.01,-0.04 0.01,-0.03 0.01,-0.04 0.02,-0.03 0.01,-0.04 0.02,-0.03 0.02,-0.04 0.01,-0.03 0.02,-0.03 0.03,-0.04 0.02,-0.03 0.02,-0.03 0.03,-0.02 0.02,-0.03 0.03,-0.03 0.03,-0.02 0.03,-0.02 0.03,-0.03 0.03,-0.02 0.04,-0.01 0.03,-0.02 0.04,-0.01 0.04,-0.02 0.04,-0.01 0.04,0 0.04,-0.01 0.04,0 0.04,-0.01 c 0.21,0 0.82,0.14 0.82,0.95 l 0,0.55 -0.25,0 0,-0.55 c 0,-0.58 -0.25,-0.64 -0.36,-0.64 -0.33,0 -0.37,0.45 -0.37,0.5 l 0,1.99 c 0,0.41 0,0.8 -0.36,1.17 -0.39,0.39 -0.88,0.54 -1.36,0.54 -0.82,0 -1.51,-0.46 -1.51,-1.12 0,-0.29 0.2,-0.46 0.46,-0.46 0.28,0 0.46,0.19 0.46,0.45 0,0.12 -0.05,0.45 -0.51,0.46 0.27,0.35 0.76,0.46 1.08,0.46 0.49,0 1.05,-0.39 1.05,-1.27 l 0,-0.37 0,-0.21 0,-0.99 c 0,-0.95 -0.71,-1.29 -1.16,-1.29 -0.49,0 -0.9,0.35 -0.9,0.85 0,0.54 0.42,1.37 2.06,1.43 l 0,0 0,0.21 c -0.5,-0.03 -1.2,-0.06 -1.83,-0.36 -0.75,-0.34 -1,-0.85 -1,-1.29 0,-0.81 0.97,-1.05 1.6,-1.05 0.66,0 1.12,0.39 1.3,0.86 z"
         inkscape:connector-curvature="0"
         style="fill:#000000;stroke-width:0" /><path
         id="path13805"
         d="m 289.46,664.13 -1.44,-0.11 0,-0.31 c 0.7,0 0.78,-0.07 0.78,-0.55 l 0,-5.17 c 0,-0.45 -0.11,-0.45 -0.78,-0.45 l 0,-0.31 c 0.33,0.01 0.86,0.04 1.11,0.04 0.25,0 0.74,-0.03 1.11,-0.04 l 0,0.31 c -0.67,0 -0.78,0 -0.78,0.45 z"
         inkscape:connector-curvature="0"
         style="fill:#000000;stroke-width:0" /><path
         id="path13807"
         d="m 294.95,659.4 0,0.08 0,0.07 0,0.07 0.01,0.07 0,0.07 0.01,0.07 0,0.06 0.01,0.06 0.01,0.06 0.01,0.06 0.01,0.06 0.01,0.06 0.03,0.11 0.03,0.1 0.04,0.1 0.03,0.09 0.04,0.09 0.04,0.08 0.05,0.07 0.04,0.07 0.05,0.07 0.05,0.06 0.05,0.05 0.06,0.05 0.05,0.05 0.05,0.04 0.06,0.04 0.06,0.03 0.05,0.03 0.06,0.03 0.06,0.02 0.05,0.02 0.06,0.01 0.05,0.02 0.06,0.01 0.05,0 0.05,0.01 0.05,0 c 0.09,0 0.72,-0.01 1.07,-0.37 -0.41,-0.03 -0.47,-0.33 -0.47,-0.46 0,-0.26 0.18,-0.45 0.46,-0.45 0.26,0 0.46,0.16 0.46,0.46 0,0.68 -0.76,1.06 -1.53,1.06 -1.24,0 -2.16,-1.07 -2.16,-2.3 0,-1.27 0.99,-2.25 2.14,-2.25 1.34,0 1.66,1.19 1.66,1.29 0,0.1 -0.1,0.1 -0.13,0.1 -0.09,0 -0.11,-0.04 -0.13,-0.1 -0.29,-0.93 -0.94,-1.05 -1.31,-1.05 -0.53,0 -1.4,0.43 -1.4,2.03 z"
         inkscape:connector-curvature="0"
         style="fill:#000000;stroke-width:0" /><path
         id="path13809"
         d="m 302.9,659.36 0,0.12 -0.01,0.12 -0.01,0.11 -0.02,0.12 -0.03,0.11 -0.03,0.11 -0.03,0.11 -0.04,0.1 -0.05,0.1 -0.04,0.1 -0.06,0.1 -0.06,0.09 -0.06,0.1 -0.06,0.08 -0.07,0.09 -0.08,0.08 -0.07,0.08 -0.08,0.07 -0.09,0.07 -0.08,0.06 -0.09,0.07 -0.09,0.05 -0.1,0.05 -0.1,0.05 -0.1,0.04 -0.1,0.04 -0.1,0.03 -0.11,0.03 -0.11,0.02 -0.11,0.01 -0.11,0.01 -0.11,0 -0.01,-0.21 c 0.44,0 0.87,-0.22 1.13,-0.65 0.26,-0.43 0.26,-1 0.26,-1.38 0,-0.36 0,-0.89 -0.22,-1.33 -0.22,-0.45 -0.66,-0.74 -1.16,-0.74 l 0,0 c -0.43,0 -0.87,0.21 -1.14,0.67 -0.25,0.44 -0.25,1.04 -0.25,1.4 0,0.39 0,0.92 0.24,1.36 0.27,0.46 0.74,0.67 1.14,0.67 l 0.01,0.21 c -1.25,0 -2.21,-1.08 -2.21,-2.32 0,-1.28 1.03,-2.23 2.2,-2.23 1.21,0 2.21,0.97 2.21,2.23 z"
         inkscape:connector-curvature="0"
         style="fill:#000000;stroke-width:0" /><path
         id="path13811"
         d="m 304.29,660.65 0,-2.66 c 0,-0.45 -0.11,-0.45 -0.78,-0.45 l 0,-0.31 c 0.35,0.01 0.85,0.04 1.12,0.04 0.26,0 0.78,-0.03 1.12,-0.04 l 0,0.31 c -0.67,0 -0.78,0 -0.78,0.45 l 0,1.83 c 0,1.03 0.71,1.59 1.35,1.59 0.63,0 0.74,-0.54 0.74,-1.11 l 0,-2.31 c 0,-0.45 -0.11,-0.45 -0.78,-0.45 l 0,-0.31 c 0.35,0.01 0.86,0.04 1.13,0.04 0.26,0 0.77,-0.03 1.11,-0.04 l 0,0.31 c -0.66,0 -0.77,0 -0.77,0.45 l 0,1.83 c 0,1.03 0.7,1.59 1.34,1.59 0.63,0 0.74,-0.54 0.74,-1.11 l 0,-2.31 c 0,-0.45 -0.11,-0.45 -0.78,-0.45 l 0,-0.31 c 0.35,0.01 0.86,0.04 1.13,0.04 0.26,0 0.78,-0.03 1.12,-0.04 l 0,0.31 c -0.52,0 -0.77,0 -0.78,0.3 l 0,1.9 c 0,0.85 0,1.16 -0.31,1.52 -0.14,0.17 -0.47,0.37 -1.05,0.37 -0.84,0 -1.27,-0.6 -1.44,-0.98 -0.14,0.87 -0.88,0.98 -1.33,0.98 -0.73,0 -1.2,-0.43 -1.48,-1.05 l 0,1.05 -1.4,-0.11 0,-0.31 c 0.7,0 0.78,-0.07 0.78,-0.56 z"
         inkscape:connector-curvature="0"
         style="fill:#000000;stroke-width:0" /><path
         id="path13813"
         d="m 313.2,660.97 0,0.66 -1.43,-0.11 0,-0.31 c 0.71,0 0.78,-0.06 0.78,-0.5 l 0,-4.65 c 0,-0.44 -0.11,-0.44 -0.78,-0.44 l 0,-0.31 c 0.34,0.01 0.86,0.03 1.12,0.03 0.27,0 0.77,-0.02 1.12,-0.03 l 0,0.31 c -0.66,0 -0.78,0 -0.78,0.44 l 0,1.67 0,0.09 0.15,0.13 c -0.15,0.21 -0.15,0.22 -0.15,0.42 l 0,0 0,2.21 c 0.29,0.51 0.78,0.8 1.29,0.8 0.73,0 1.34,-0.88 1.34,-2 0,-1.2 -0.7,-2.04 -1.44,-2.04 -0.4,0 -0.78,0.2 -1.04,0.61 l -0.15,-0.13 c 0.06,-0.16 0.47,-0.69 1.23,-0.69 1.19,0 2.23,0.97 2.23,2.25 0,1.26 -0.97,2.25 -2.09,2.25 -0.78,0 -1.2,-0.44 -1.4,-0.66 z"
         inkscape:connector-curvature="0"
         style="fill:#000000;stroke-width:0" /><path
         id="path13815"
         d="m 318.79,664.13 -1.44,-0.11 0,-0.31 c 0.7,0 0.78,-0.07 0.78,-0.55 l 0,-5.17 c 0,-0.45 -0.11,-0.45 -0.78,-0.45 l 0,-0.31 c 0.33,0.01 0.86,0.04 1.11,0.04 0.25,0 0.74,-0.03 1.11,-0.04 l 0,0.31 c -0.67,0 -0.78,0 -0.78,0.45 z"
         inkscape:connector-curvature="0"
         style="fill:#000000;stroke-width:0" /><path
         id="path13817"
         d="m 320.9,659.53 0.01,0.21 c 0.06,1.48 0.9,1.73 1.24,1.73 1.02,0 1.12,-1.34 1.12,-1.73 l -2.36,0 -0.01,-0.21 2.78,0 c 0.22,0 0.25,0 0.25,0.21 0,0.98 -0.54,1.94 -1.78,1.94 -1.16,0 -2.08,-1.02 -2.08,-2.26 0,-1.33 1.05,-2.29 2.2,-2.29 1.21,0 1.66,1.1 1.66,1.29 0,0.1 -0.08,0.12 -0.13,0.12 -0.09,0 -0.11,-0.06 -0.13,-0.14 -0.35,-1.03 -1.24,-1.03 -1.34,-1.03 -0.5,0 -0.9,0.3 -1.13,0.67 -0.3,0.48 -0.3,1.13 -0.3,1.49 z"
         inkscape:connector-curvature="0"
         style="fill:#000000;stroke-width:0" /><path
         id="path13819"
         d="m 327.08,659.57 0.06,0.07 0.06,0.08 0.06,0.07 0.06,0.08 0.12,0.15 0.06,0.08 0.06,0.08 0.06,0.07 0.06,0.07 0.06,0.07 0.06,0.07 0.02,0.03 0.03,0.03 0.03,0.04 0.02,0.03 0.03,0.02 0.02,0.03 0.03,0.03 0.02,0.02 c 0.31,0.36 0.72,0.51 1.19,0.52 l 0,0.31 c -0.26,-0.02 -0.56,-0.03 -0.82,-0.03 -0.3,0 -0.83,0.02 -0.96,0.03 l 0,-0.31 c 0.21,-0.02 0.29,-0.15 0.29,-0.31 0,-0.16 -0.1,-0.29 -0.15,-0.35 l -0.62,-0.77 -0.78,1 c -0.08,0.1 -0.08,0.12 -0.08,0.18 0,0.15 0.14,0.24 0.34,0.25 l 0,0.31 c -0.26,-0.01 -0.91,-0.03 -1.07,-0.03 -0.21,0 -0.68,0.01 -0.95,0.03 l 0,-0.31 c 0.7,0 0.71,-0.01 1.18,-0.61 l 0.98,-1.28 -0.93,-1.18 c -0.48,-0.58 -1.07,-0.6 -1.28,-0.6 l 0,-0.31 c 0.26,0.03 0.57,0.04 0.83,0.04 0.29,0 0.71,-0.03 0.94,-0.04 l 0,0.31 c -0.21,0.03 -0.28,0.16 -0.28,0.31 0,0.22 0.28,0.55 0.89,1.26 l 0.76,-0.99 c 0.08,-0.11 0.21,-0.27 0.21,-0.33 0,-0.09 -0.09,-0.24 -0.36,-0.25 l 0,-0.31 c 0.3,0.01 0.86,0.04 1.08,0.04 0.27,0 0.66,-0.01 0.96,-0.04 l 0,0.31 c -0.54,0 -0.72,0.02 -0.95,0.31 z"
         inkscape:connector-curvature="0"
         style="fill:#000000;stroke-width:0" /></g>    <path
       style="fill:none;fill-rule:evenodd;stroke:#000000;stroke-width:1px;stroke-linecap:butt;stroke-linejoin:miter;stroke-opacity:1"
       d="m 479.84626,746.31854 3.77832,294.70876"
       id="path13898"
       inkscape:connector-curvature="0" />
  </g>
</svg>
